<svg width="20" height="20" viewBox="0 0 20 20" fill="none" xmlns="http://www.w3.org/2000/svg">
<path fill-rule="evenodd" clip-rule="evenodd" d="M17.9412 9.55828C18.0583 9.67547 18.124 9.83432 18.124 9.99995C18.124 10.1656 18.0583 10.3244 17.9412 10.4416L12.1187 16.275C12.0611 16.3347 11.9922 16.3823 11.9159 16.4151C11.8397 16.4479 11.7577 16.4652 11.6747 16.4659C11.5917 16.4667 11.5094 16.4509 11.4326 16.4195C11.3558 16.3881 11.286 16.3418 11.2272 16.2831C11.1685 16.2245 11.1221 16.1547 11.0906 16.0779C11.0592 16.0011 11.0433 15.9188 11.044 15.8358C11.0447 15.7528 11.0619 15.6708 11.0946 15.5946C11.1273 15.5183 11.1749 15.4493 11.2346 15.3916L15.9912 10.6258L2.49957 10.6349C2.33381 10.6352 2.17476 10.5695 2.05739 10.4525C1.94002 10.3354 1.87396 10.1765 1.87374 10.0108C1.87352 9.84502 1.93916 9.68596 2.05621 9.5686C2.17326 9.45123 2.33215 9.38517 2.49791 9.38495L15.9929 9.37662L11.2337 4.60828C11.1741 4.5506 11.1265 4.48161 11.0938 4.40535C11.0611 4.32908 11.0439 4.24706 11.0432 4.16407C11.0425 4.08108 11.0583 3.99879 11.0898 3.922C11.1213 3.8452 11.1677 3.77544 11.2264 3.71679C11.2851 3.65813 11.3549 3.61176 11.4318 3.58037C11.5086 3.54898 11.5909 3.5332 11.6739 3.53396C11.7569 3.53472 11.8389 3.552 11.9151 3.58479C11.9913 3.61758 12.0603 3.66523 12.1179 3.72495L17.9412 9.55828Z" fill="white"/>
</svg>
