<svg width="30" height="30" viewBox="0 0 30 30" fill="none" xmlns="http://www.w3.org/2000/svg">
<path d="M5.90003 0.921544C5.98146 0.921283 6.06289 0.920972 6.14431 0.920614C6.36725 0.919786 6.59018 0.919686 6.81312 0.919712C7.0539 0.919615 7.29467 0.918849 7.53545 0.918177C8.0616 0.91684 8.58775 0.916374 9.11391 0.916078C9.44276 0.915887 9.77161 0.915505 10.1005 0.915082C11.0119 0.913935 11.9233 0.912974 12.8347 0.912804C12.893 0.912793 12.9512 0.912782 13.0113 0.912771C13.1294 0.912749 13.2476 0.912728 13.3657 0.912707C13.4537 0.912691 13.4537 0.912691 13.5434 0.912674C13.6315 0.912658 13.6315 0.912658 13.7214 0.912642C14.6721 0.912435 15.6229 0.910852 16.5736 0.908661C17.5509 0.906426 18.5282 0.905295 19.5055 0.905277C20.0538 0.905243 20.602 0.90475 21.1503 0.90305C21.6172 0.90161 22.0842 0.90119 22.5512 0.902069C22.7891 0.902487 23.027 0.902446 23.265 0.901107C24.6594 0.893727 25.8019 0.960928 26.8723 1.96414C27.8652 2.99601 27.978 4.19571 27.973 5.55644C27.9731 5.67165 27.9733 5.78686 27.9735 5.90207C27.9738 6.14178 27.9734 6.38149 27.9726 6.6212C27.9716 6.92668 27.9722 7.23212 27.9732 7.5376C27.9739 7.77487 27.9736 8.01214 27.9732 8.24941C27.9731 8.362 27.9732 8.47459 27.9736 8.58718C27.9762 9.48782 27.9485 10.3353 27.2987 11.0308C26.624 11.6613 25.9003 11.7391 25.0008 11.7303C24.9354 11.7301 24.8701 11.73 24.8028 11.7298C24.5969 11.7292 24.3909 11.7277 24.185 11.7262C24.0443 11.7256 23.9035 11.7251 23.7627 11.7246C23.4201 11.7233 23.0775 11.7213 22.7348 11.7189C22.7349 11.7528 22.735 11.7867 22.7351 11.8216C22.7403 13.8321 22.7444 15.8426 22.7468 17.8531C22.7471 18.0946 22.7474 18.336 22.7477 18.5774C22.7478 18.6255 22.7478 18.6736 22.7479 18.7231C22.7489 19.5012 22.7508 20.2794 22.7529 21.0575C22.7551 21.856 22.7564 22.6545 22.7569 23.453C22.7572 23.9457 22.7582 24.4384 22.7601 24.931C22.7614 25.2689 22.7617 25.6068 22.7614 25.9448C22.7613 26.1397 22.7616 26.3346 22.7628 26.5295C22.7639 26.741 22.7637 26.9525 22.763 27.164C22.7637 27.2254 22.7644 27.2867 22.7651 27.3499C22.7615 27.7854 22.6739 28.0993 22.3874 28.4323C22.0436 28.7209 21.7562 28.8624 21.3002 28.8453C20.749 28.7814 20.2607 28.4221 19.8015 28.1361C19.73 28.0921 19.6585 28.0481 19.587 28.0041C19.477 27.9365 19.3669 27.8689 19.257 27.8011C18.8742 27.565 18.4884 27.334 18.1023 27.1034C17.9819 27.0315 17.8616 26.9595 17.7413 26.8875C17.6913 26.8577 17.6413 26.8278 17.5898 26.797C17.4869 26.7344 17.3859 26.6685 17.2856 26.6017C16.9647 26.615 16.7342 26.7187 16.4664 26.8848C16.4286 26.9075 16.3907 26.9303 16.3516 26.9537C16.2292 27.0274 16.1074 27.102 15.9856 27.1766C15.901 27.2277 15.8164 27.2788 15.7318 27.3298C15.5643 27.4309 15.3971 27.5322 15.23 27.634C14.9838 27.7839 14.7364 27.9318 14.4889 28.0795C14.1913 28.257 13.8941 28.4348 13.6008 28.6193C13.5485 28.6521 13.5485 28.6521 13.495 28.6856C13.4053 28.7421 13.316 28.7991 13.2266 28.8562C12.9708 28.9991 12.7269 29.0797 12.4333 29.0846C12.3882 29.0862 12.3431 29.0879 12.2967 29.0896C11.7292 28.998 11.2192 28.6109 10.7341 28.3192C10.6517 28.2699 10.5693 28.2207 10.4869 28.1715C8.33706 26.886 8.33706 26.886 7.91061 26.6017C7.6258 26.57 7.47126 26.6294 7.23175 26.7804C7.16842 26.8197 7.10509 26.859 7.03984 26.8994C6.98959 26.9313 6.98959 26.9313 6.93832 26.9639C6.79562 27.0545 6.65186 27.1433 6.50815 27.2322C6.43177 27.2796 6.35543 27.327 6.27916 27.3745C5.86304 27.6333 5.44267 27.8849 5.02134 28.1352C4.89834 28.2084 4.77553 28.2818 4.65273 28.3553C4.57667 28.4006 4.5006 28.4459 4.42451 28.4911C4.39021 28.5117 4.35592 28.5323 4.32058 28.5535C3.90835 28.7974 3.58407 28.8891 3.10592 28.8282C2.72448 28.7107 2.46801 28.5209 2.23617 28.1988C2.07819 27.8903 2.03657 27.5871 2.03632 27.2443C2.03614 27.2047 2.03595 27.1652 2.03575 27.1244C2.03527 26.9923 2.03561 26.8602 2.03596 26.728C2.03578 26.6321 2.03555 26.5363 2.03528 26.4404C2.03468 26.1772 2.03481 25.9141 2.03506 25.6509C2.0352 25.367 2.03467 25.083 2.03423 24.7991C2.03349 24.2428 2.03338 23.6865 2.03352 23.1302C2.03362 22.6778 2.03352 22.2254 2.03327 21.773C2.03324 21.7086 2.0332 21.6442 2.03317 21.5778C2.03309 21.447 2.03302 21.3162 2.03295 21.1854C2.03231 19.9581 2.03244 18.7308 2.0328 17.5035C2.0331 16.3819 2.03244 15.2602 2.03133 14.1386C2.03019 12.9862 2.02971 11.8339 2.02993 10.6815C2.03004 10.0348 2.0299 9.38814 2.02907 8.74146C2.02837 8.19064 2.02829 7.63982 2.029 7.08901C2.02934 6.80823 2.02941 6.52747 2.0287 6.2467C2.02806 5.98908 2.02825 5.73148 2.02907 5.47387C2.02922 5.38124 2.02909 5.28862 2.02862 5.19599C2.02498 4.42854 2.05993 3.60477 2.43209 2.91515C2.46207 2.85771 2.46207 2.85771 2.49266 2.79912C3.00234 1.87157 3.828 1.30659 4.8248 0.993386C5.17889 0.906968 5.53763 0.920861 5.90003 0.921544ZM4.40231 3.44982C4.06043 3.87083 3.97744 4.30333 3.97762 4.83965C3.9775 4.91689 3.97739 4.99413 3.97726 5.07371C3.97743 5.15903 3.9776 5.24435 3.97778 5.32968C3.97776 5.42061 3.97771 5.51155 3.97763 5.60249C3.9775 5.85221 3.97773 6.10194 3.97803 6.35167C3.97828 6.62103 3.97819 6.89039 3.97815 7.15975C3.97812 7.62638 3.9783 8.09302 3.97863 8.55965C3.97911 9.23432 3.97926 9.909 3.97934 10.5837C3.97946 11.6783 3.97985 12.7729 3.98041 13.8675C3.98095 14.9308 3.98136 15.9941 3.98161 17.0575C3.98162 17.123 3.98164 17.1885 3.98166 17.2561C3.98173 17.5849 3.98181 17.9137 3.98188 18.2425C3.98249 20.9703 3.98352 23.6981 3.98483 26.4259C4.21734 26.336 4.41982 26.229 4.63233 26.0979C4.66583 26.0774 4.69933 26.0568 4.73384 26.0357C4.80516 25.9919 4.87643 25.9481 4.94764 25.9042C5.13224 25.7904 5.31737 25.6776 5.50254 25.5648C5.53877 25.5428 5.57499 25.5207 5.61232 25.498C5.89522 25.326 6.17962 25.1571 6.46774 24.994C6.50311 24.9737 6.53848 24.9534 6.57493 24.9325C6.95671 24.7191 7.28214 24.6458 7.71286 24.6424C7.75568 24.6405 7.79851 24.6386 7.84263 24.6366C8.50815 24.6303 9.07928 25.0109 9.62595 25.3521C9.72989 25.4169 9.8342 25.4812 9.93862 25.5453C10.0857 25.6357 10.2327 25.7263 10.3796 25.8172C10.7209 26.0283 11.0629 26.2382 11.4055 26.4473C11.5124 26.5128 11.6191 26.5786 11.7258 26.6444C11.7907 26.6841 11.8556 26.7238 11.9225 26.7646C12.008 26.8173 12.008 26.8173 12.0954 26.871C12.279 26.9749 12.279 26.9749 12.4809 27.0118C12.6451 26.9434 12.6451 26.9434 12.8178 26.8347C12.8508 26.8152 12.8837 26.7957 12.9177 26.7756C13.0264 26.711 13.1345 26.6453 13.2426 26.5797C13.3182 26.5345 13.3938 26.4894 13.4695 26.4444C13.707 26.3026 13.9437 26.1593 14.1801 26.0157C14.2188 25.9923 14.2574 25.9688 14.2973 25.9446C14.4118 25.8751 14.5264 25.8054 14.6409 25.7358C14.6778 25.7134 14.7147 25.6909 14.7528 25.6678C14.9296 25.5603 15.1061 25.4525 15.2823 25.344C16.4103 24.6528 16.4103 24.6528 17.0915 24.6461C17.1679 24.6444 17.2442 24.6428 17.3229 24.6411C18.0057 24.6847 18.5899 25.1023 19.1569 25.4481C19.2384 25.4973 19.3198 25.5463 19.4013 25.5954C19.5173 25.6653 19.6334 25.7352 19.7491 25.8055C19.9862 25.9495 20.2251 26.0902 20.4648 26.2299C20.5594 26.285 20.5594 26.285 20.6559 26.3413C20.7039 26.3692 20.7518 26.3971 20.8012 26.4259C20.8013 26.3555 20.8013 26.3555 20.8014 26.2837C20.8048 23.5011 20.8091 20.7185 20.8147 17.9359C20.8153 17.6016 20.816 17.2673 20.8166 16.933C20.8167 16.8665 20.8169 16.7999 20.817 16.7314C20.8191 15.6545 20.8205 14.5777 20.8218 13.5008C20.823 12.3955 20.825 11.2901 20.8275 10.1848C20.8291 9.50302 20.8301 8.82124 20.8305 8.13945C20.8308 7.67162 20.8318 7.20378 20.8332 6.73595C20.834 6.46623 20.8346 6.19652 20.8343 5.9268C20.8341 5.6794 20.8348 5.43202 20.836 5.18462C20.8363 5.09558 20.8363 5.00653 20.836 4.91748C20.8342 4.35185 20.8954 3.83055 21.0356 3.28136C21.048 3.23016 21.0605 3.17896 21.0733 3.12621C21.0989 3.02145 21.1257 2.91698 21.1528 2.81261C19.1996 2.80992 17.2464 2.80786 15.2932 2.80662C15.0625 2.80648 14.8318 2.80633 14.6011 2.80617C14.5322 2.80612 14.5322 2.80612 14.4619 2.80608C13.7187 2.80557 12.9755 2.80464 12.2323 2.80357C11.4694 2.80247 10.7065 2.80182 9.94361 2.80158C9.47307 2.80142 9.00254 2.80091 8.532 2.79996C8.17086 2.79927 7.80972 2.7992 7.44858 2.79935C7.30067 2.79932 7.15276 2.79909 7.00485 2.79864C6.80261 2.79805 6.60038 2.7982 6.39813 2.79852C6.31075 2.798 6.31075 2.798 6.22161 2.79748C5.51757 2.80048 4.89667 2.91504 4.40231 3.44982ZM23.0555 3.40656C22.7381 3.80808 22.7262 4.27381 22.7282 4.7631C22.7282 4.81743 22.7282 4.87177 22.7281 4.92775C22.7282 5.10687 22.7286 5.286 22.7291 5.46512C22.7292 5.5895 22.7293 5.71388 22.7294 5.83826C22.7296 6.16529 22.7302 6.49232 22.7308 6.81935C22.7314 7.15319 22.7317 7.48704 22.732 7.82089C22.7326 8.47568 22.7336 9.13047 22.7348 9.78526C23.1467 9.78972 23.5585 9.7928 23.9704 9.79492C24.1105 9.7958 24.2506 9.797 24.3907 9.79852C24.5922 9.80066 24.7936 9.80165 24.995 9.80243C25.0576 9.80334 25.1202 9.80424 25.1846 9.80518C25.602 9.81102 25.602 9.81102 25.9575 9.60948C26.0497 9.42499 26.0247 9.22736 26.0246 9.02479C26.0248 8.97647 26.025 8.92815 26.0252 8.87837C26.0257 8.71794 26.0259 8.55752 26.0259 8.3971C26.0261 8.28555 26.0263 8.174 26.0265 8.06246C26.0269 7.82814 26.027 7.59382 26.0269 7.3595C26.0269 7.06017 26.0277 6.76084 26.0287 6.46151C26.0294 6.23083 26.0295 6.00015 26.0295 5.76946C26.0295 5.65918 26.0298 5.5489 26.0303 5.43862C26.0308 5.28368 26.0307 5.12875 26.0303 4.97381C26.0306 4.92877 26.031 4.88373 26.0313 4.83733C26.0275 4.17958 25.8513 3.70257 25.3825 3.23375C24.5964 2.69422 23.723 2.69647 23.0555 3.40656Z" fill="#3A3C98"/>
<path d="M8.05767 12.9987C8.12486 12.9983 8.19205 12.9979 8.26128 12.9975C8.33507 12.9973 8.40885 12.9971 8.48487 12.997C8.56332 12.9966 8.64177 12.9962 8.72021 12.9958C8.9779 12.9946 9.23558 12.994 9.49327 12.9934C9.58205 12.9932 9.67082 12.9929 9.7596 12.9927C10.1767 12.9915 10.5939 12.9907 11.011 12.9902C11.4922 12.9897 11.9733 12.9881 12.4545 12.9857C12.8266 12.984 13.1987 12.9831 13.5708 12.9829C13.793 12.9828 14.0151 12.9823 14.2373 12.9808C14.4464 12.9794 14.6555 12.9792 14.8646 12.9798C14.9775 12.9798 15.0905 12.9787 15.2034 12.9775C15.5973 12.9799 15.8555 12.9986 16.172 13.2417C16.4131 13.5525 16.4973 13.7859 16.465 14.1792C16.3537 14.52 16.201 14.7111 15.8791 14.8824C15.6978 14.9428 15.5724 14.9487 15.3824 14.9496C15.3157 14.95 15.249 14.9504 15.1803 14.9508C15.107 14.951 15.0338 14.9512 14.9583 14.9513C14.8812 14.9517 14.8042 14.9521 14.7247 14.9525C14.4689 14.9537 14.2132 14.9543 13.9574 14.9549C13.8693 14.9551 13.7811 14.9554 13.693 14.9556C13.2789 14.9567 12.8649 14.9576 12.4508 14.9581C11.9732 14.9586 11.4956 14.9602 11.018 14.9626C10.6486 14.9643 10.2792 14.9652 9.90984 14.9654C9.68933 14.9655 9.46883 14.966 9.24832 14.9675C9.04074 14.9689 8.83319 14.9691 8.62561 14.9685C8.51351 14.9685 8.40142 14.9696 8.28933 14.9708C7.89571 14.9684 7.64214 14.9465 7.32439 14.7066C7.05537 14.4163 7.01046 14.1833 7.01494 13.7986C7.04739 13.5097 7.20815 13.3523 7.41594 13.1648C7.634 13.0139 7.79901 12.9998 8.05767 12.9987Z" fill="#3A3C98"/>
<path d="M8.1725 7.96058C8.2378 7.96025 8.3031 7.95991 8.37038 7.95957C8.44177 7.9595 8.51315 7.95944 8.5867 7.95937C8.66208 7.95908 8.73747 7.95879 8.81513 7.95849C9.02179 7.95772 9.22845 7.95734 9.43511 7.95708C9.56432 7.95691 9.69353 7.95667 9.82274 7.95641C10.2273 7.95561 10.6318 7.95504 11.0364 7.95481C11.5029 7.95455 11.9693 7.95352 12.4358 7.95182C12.7967 7.95056 13.1576 7.94997 13.5186 7.94989C13.734 7.94983 13.9494 7.94948 14.1648 7.94843C14.4052 7.94729 14.6456 7.94754 14.886 7.94793C14.957 7.94739 15.028 7.94685 15.1012 7.94629C15.5578 7.94855 15.8611 7.98144 16.2191 8.28375C16.4499 8.56071 16.4955 8.7816 16.4645 9.14069C16.3577 9.48487 16.2204 9.63893 15.9372 9.84381C15.784 9.92039 15.671 9.9103 15.4994 9.91103C15.3973 9.91166 15.3973 9.91166 15.2931 9.9123C15.1805 9.91253 15.1805 9.91253 15.0655 9.91278C14.9859 9.91314 14.9064 9.91353 14.8268 9.91394C14.565 9.91518 14.3031 9.91578 14.0413 9.91637C13.9512 9.9166 13.8611 9.91684 13.7709 9.91709C13.3474 9.91821 12.9238 9.91904 12.5002 9.91953C12.0114 9.9201 11.5227 9.92164 11.0339 9.92401C10.6561 9.92578 10.2783 9.92665 9.90042 9.92684C9.67479 9.92698 9.44918 9.9275 9.22356 9.92898C9.01113 9.93034 8.79872 9.93059 8.58628 9.92999C8.47153 9.92994 8.35678 9.93106 8.24204 9.93222C7.84569 9.92988 7.58346 9.91352 7.26529 9.66803C7.0472 9.38843 6.99236 9.1679 7.00848 8.8143C7.0574 8.50383 7.19293 8.31907 7.44107 8.12262C7.69329 7.986 7.88718 7.96146 8.1725 7.96058Z" fill="#3A3C98"/>
<path d="M8.2333 18.0973C8.29761 18.097 8.36192 18.0966 8.42818 18.0963C8.49816 18.0962 8.56815 18.0962 8.64025 18.0961C8.75149 18.0957 8.75149 18.0957 8.86497 18.0952C9.068 18.0944 9.27102 18.0941 9.47405 18.0938C9.60105 18.0936 9.72806 18.0934 9.85506 18.0931C10.2529 18.0923 10.6507 18.0918 11.0485 18.0915C11.5069 18.0913 11.9653 18.0902 12.4237 18.0885C12.7786 18.0873 13.1335 18.0867 13.4884 18.0866C13.7001 18.0865 13.9118 18.0862 14.1235 18.0852C14.3598 18.084 14.5961 18.0843 14.8324 18.0846C14.9021 18.0841 14.9717 18.0836 15.0434 18.083C15.4622 18.0851 15.8395 18.1019 16.175 18.382C16.2016 18.4165 16.2283 18.4509 16.2558 18.4864C16.2835 18.5208 16.3112 18.5553 16.3398 18.5908C16.486 18.8135 16.4818 19.0185 16.4645 19.2774C16.3577 19.6216 16.2204 19.7756 15.9372 19.9805C15.784 20.0571 15.671 20.047 15.4994 20.0477C15.3973 20.0484 15.3973 20.0484 15.2931 20.049C15.1805 20.0493 15.1805 20.0493 15.0655 20.0495C14.9859 20.0499 14.9064 20.0503 14.8268 20.0507C14.565 20.0519 14.3031 20.0525 14.0413 20.0531C13.9512 20.0533 13.8611 20.0536 13.7709 20.0538C13.3474 20.0549 12.9238 20.0558 12.5002 20.0562C12.0114 20.0568 11.5227 20.0584 11.0339 20.0607C10.6561 20.0625 10.2783 20.0634 9.90042 20.0636C9.67479 20.0637 9.44918 20.0642 9.22356 20.0657C9.01113 20.0671 8.79872 20.0673 8.58628 20.0667C8.47153 20.0667 8.35678 20.0678 8.24204 20.0689C7.84569 20.0666 7.58346 20.0502 7.26529 19.8047C7.0472 19.5252 6.99236 19.3046 7.00848 18.951C7.05717 18.642 7.19259 18.4573 7.43741 18.2593C7.70203 18.1189 7.93676 18.0982 8.2333 18.0973Z" fill="#3A3C98"/>
</svg>
