<svg width="26" height="26" viewBox="0 0 26 26" fill="none" xmlns="http://www.w3.org/2000/svg">
<g clip-path="url(#clip0_1937_2496)">
<path d="M2.34495 -0.0132543C2.43091 -0.0135994 2.43091 -0.0135994 2.51861 -0.0139515C2.71075 -0.0145947 2.90289 -0.0145112 3.09503 -0.0144274C3.23276 -0.0146761 3.37048 -0.015074 3.5082 -0.0154611C3.84357 -0.016304 4.17895 -0.0165838 4.51432 -0.0166404C4.78705 -0.0166887 5.05978 -0.0168976 5.33251 -0.0172194C6.10628 -0.0181137 6.88005 -0.0185823 7.65382 -0.0185062C7.69552 -0.0185021 7.73721 -0.018498 7.78017 -0.0184939C7.82192 -0.0184897 7.86367 -0.0184856 7.90669 -0.0184813C8.58291 -0.01844 9.25914 -0.0194114 9.93537 -0.0208439C10.6302 -0.0223041 11.3251 -0.023004 12.02 -0.0229164C12.4099 -0.0228827 12.7998 -0.0231596 13.1897 -0.0242548C13.5217 -0.0251814 13.8538 -0.0253988 14.1858 -0.0247108C14.3551 -0.0243801 14.5243 -0.0244812 14.6936 -0.0252545C14.8775 -0.0260402 15.0614 -0.0255658 15.2453 -0.0247842C15.2982 -0.0253066 15.3511 -0.025829 15.4056 -0.0263672C16.6254 -0.0149552 17.4111 0.998869 18.2073 1.79514C18.327 1.91473 18.4471 2.03391 18.5672 2.15307C18.6445 2.23018 18.7217 2.30731 18.7989 2.38447C18.8343 2.41949 18.8697 2.45452 18.9062 2.49061C19.6499 3.23778 19.8702 3.98857 19.8724 5.03398C19.8729 5.09153 19.8734 5.14908 19.8739 5.20838C19.8755 5.39603 19.8763 5.58368 19.8772 5.77134C19.8782 5.90246 19.8792 6.03359 19.8802 6.16471C19.8825 6.47295 19.8844 6.78118 19.8861 7.08942C19.8881 7.44079 19.8906 7.79215 19.8931 8.14351C19.8983 8.86531 19.9029 9.58711 19.907 10.3089C19.9344 10.2811 19.9617 10.2532 19.99 10.2246C20.2501 9.96035 20.5107 9.69665 20.7719 9.43349C20.9061 9.29823 21.0401 9.16279 21.1737 9.0269C21.3029 8.8954 21.4327 8.76442 21.5628 8.63376C21.612 8.58421 21.661 8.53447 21.7099 8.48455C22.2583 7.92421 22.8217 7.51866 23.6196 7.46517C24.3142 7.46517 24.89 7.70082 25.3913 8.17611C25.8024 8.63126 26.0208 9.15122 26.0166 9.76302C26.0162 9.82747 26.0162 9.82747 26.0157 9.89322C26.0003 10.6841 25.6268 11.1779 25.0867 11.7308C24.9169 11.88 24.7393 12.0176 24.5601 12.1551C24.4554 12.2375 24.3508 12.3201 24.2465 12.403C24.2194 12.4246 24.1922 12.4462 24.1642 12.4684C23.5824 12.9329 23.0235 13.4247 22.4714 13.9239C22.441 13.9514 22.4105 13.9789 22.3791 14.0072C20.781 15.455 19.6578 16.7733 19.5441 18.9927C19.5211 19.5373 19.5357 20.0797 19.5642 20.6239C19.5662 20.662 19.5681 20.7002 19.5702 20.7396C19.616 21.6008 19.6873 22.4593 19.8145 23.3126C19.9098 24.0142 19.7333 24.6059 19.3325 25.1811C18.996 25.6064 18.542 25.8477 18.0281 26.0003C17.8867 26.0132 17.8867 26.0132 17.7383 26.0134C17.6815 26.0137 17.6246 26.014 17.566 26.0144C17.5041 26.0142 17.4421 26.0141 17.3783 26.0139C17.312 26.0141 17.2458 26.0144 17.1776 26.0146C16.9941 26.0152 16.8106 26.0152 16.6271 26.0151C16.429 26.0151 16.231 26.0156 16.0329 26.0161C15.645 26.017 15.2571 26.0172 14.8692 26.0173C14.5538 26.0173 14.2384 26.0175 13.9229 26.0179C13.0283 26.0188 12.1337 26.0192 11.2391 26.0192C11.1668 26.0192 11.1668 26.0192 11.093 26.0191C11.0206 26.0191 11.0206 26.0191 10.9467 26.0191C10.1646 26.0191 9.38245 26.0201 8.60032 26.0215C7.79688 26.023 6.99345 26.0237 6.19001 26.0236C5.73908 26.0235 5.28816 26.0238 4.83724 26.0249C4.45324 26.0258 4.06925 26.0261 3.68525 26.0254C3.48946 26.025 3.29368 26.025 3.09789 26.0259C2.88528 26.0269 2.6727 26.0262 2.46009 26.0254C2.3987 26.026 2.33731 26.0265 2.27405 26.027C1.63123 26.0218 1.14291 25.8145 0.660869 25.3909C0.251549 24.9558 -0.015946 24.4401 -0.0123511 23.8365C-0.0125291 23.7984 -0.0127073 23.7604 -0.0128908 23.7211C-0.0133636 23.5934 -0.0131137 23.4657 -0.0128669 23.338C-0.0130567 23.2455 -0.0132903 23.1531 -0.0135641 23.0606C-0.014186 22.8065 -0.0141719 22.5524 -0.0140523 22.2982C-0.0140316 22.0242 -0.0145919 21.7501 -0.0150737 21.476C-0.0159177 20.939 -0.0161965 20.402 -0.0162531 19.865C-0.0163013 19.4285 -0.01651 18.992 -0.0168321 18.5555C-0.0177267 17.3181 -0.0181949 16.0806 -0.0181188 14.8432C-0.0181147 14.7765 -0.0181107 14.7098 -0.0181066 14.641C-0.0181024 14.5742 -0.0180982 14.5074 -0.018094 14.4386C-0.0180527 13.356 -0.0190244 12.2734 -0.0204565 11.1908C-0.0219152 10.0793 -0.0226168 8.96784 -0.0225291 7.85636C-0.0224953 7.23231 -0.0227746 6.60825 -0.0238674 5.9842C-0.024792 5.45282 -0.0250132 4.92145 -0.0243234 4.39008C-0.0239917 4.11901 -0.0239865 3.84794 -0.0248672 3.57687C-0.0256657 3.32856 -0.0255208 3.08026 -0.0246351 2.83195C-0.0244792 2.74228 -0.0246641 2.6526 -0.0252304 2.56293C-0.0296987 1.8051 0.097183 1.2442 0.610088 0.660482C0.865013 0.420684 1.14919 0.234193 1.47337 0.101888C1.51407 0.0845475 1.55476 0.0672065 1.59669 0.04934C1.8478 -0.0185214 2.08593 -0.0140162 2.34495 -0.0132543ZM1.67649 1.87923C1.55014 2.06877 1.56211 2.16548 1.56187 2.39208C1.56169 2.4292 1.56151 2.46632 1.56133 2.50457C1.56085 2.62994 1.56111 2.7553 1.56135 2.88068C1.56116 2.97108 1.56093 3.06148 1.56065 3.15188C1.56003 3.40107 1.56005 3.65026 1.56017 3.89945C1.56019 4.1679 1.55963 4.43635 1.55914 4.7048C1.5583 5.23105 1.55802 5.75729 1.55797 6.28353C1.55792 6.71116 1.55771 7.13878 1.55739 7.56641C1.55649 8.77793 1.55602 9.98946 1.5561 11.201C1.5561 11.2663 1.55611 11.3317 1.55611 11.399C1.55612 11.4645 1.55612 11.5299 1.55612 11.5973C1.55617 12.6581 1.55519 13.7189 1.55376 14.7797C1.5523 15.868 1.5516 16.9564 1.55169 18.0447C1.55172 18.6561 1.55144 19.2674 1.55035 19.8788C1.54943 20.3993 1.5492 20.9198 1.5499 21.4403C1.55023 21.706 1.55023 21.9717 1.54935 22.2374C1.54856 22.4805 1.54869 22.7236 1.54958 22.9667C1.54974 23.0548 1.54955 23.1428 1.54899 23.2309C1.54827 23.3504 1.54881 23.4699 1.54965 23.5894C1.54963 23.6558 1.54961 23.7223 1.54959 23.7907C1.57941 24.0006 1.64646 24.1096 1.77806 24.2738C2.02124 24.4546 2.25684 24.4832 2.55376 24.4836C2.60705 24.4838 2.66034 24.484 2.71524 24.4842C2.77347 24.4841 2.83169 24.4841 2.89168 24.484C2.95379 24.4842 3.01589 24.4843 3.07988 24.4845C3.25212 24.4848 3.42436 24.485 3.5966 24.485C3.78242 24.4851 3.96825 24.4855 4.15407 24.4858C4.56032 24.4865 4.96657 24.4868 5.37283 24.4871C5.62655 24.4872 5.88027 24.4874 6.134 24.4876C6.83666 24.4883 7.53933 24.4888 8.24199 24.489C8.30943 24.489 8.30943 24.489 8.37823 24.489C8.4233 24.489 8.46836 24.489 8.51479 24.489C8.60611 24.489 8.69743 24.4891 8.78875 24.4891C8.83404 24.4891 8.87934 24.4891 8.92601 24.4891C9.65994 24.4893 10.3939 24.4902 11.1278 24.4914C11.8815 24.4926 12.6353 24.4932 13.389 24.4933C13.8121 24.4933 14.2352 24.4936 14.6583 24.4945C15.0186 24.4953 15.3789 24.4956 15.7392 24.4952C15.9229 24.495 16.1067 24.495 16.2904 24.4957C16.4898 24.4965 16.6892 24.4961 16.8886 24.4956C16.9753 24.4962 16.9753 24.4962 17.0637 24.4968C17.4406 24.4944 17.8128 24.4763 18.1011 24.2103C18.2883 23.8807 18.2964 23.5695 18.2935 23.1993C18.2935 23.1235 18.2935 23.1235 18.2935 23.0461C18.2935 22.8799 18.2927 22.7136 18.2919 22.5474C18.2917 22.4318 18.2915 22.3162 18.2914 22.2005C18.2911 21.8969 18.2901 21.5933 18.2889 21.2897C18.2879 20.9796 18.2874 20.6694 18.2869 20.3593C18.2858 19.7514 18.2841 19.1434 18.282 18.5355C18.2535 18.551 18.225 18.5665 18.1957 18.5824C17.8317 18.773 17.4585 18.9064 17.0688 19.0346C17.0019 19.0568 16.935 19.0791 16.8682 19.1014C16.7292 19.1477 16.59 19.1938 16.4508 19.2397C16.273 19.2983 16.0954 19.3574 15.9178 19.4167C15.7802 19.4627 15.6425 19.5083 15.5048 19.554C15.4076 19.5862 15.3105 19.6185 15.2133 19.6509C15.1243 19.6802 15.1243 19.6802 15.0335 19.71C14.9816 19.7272 14.9297 19.7444 14.8762 19.7621C14.5616 19.8528 14.3207 19.8791 14.0163 19.7542C13.8447 19.6311 13.7487 19.5074 13.6799 19.3099C13.6448 19.0809 13.6914 18.8952 13.7595 18.6781C13.7707 18.6413 13.7819 18.6044 13.7934 18.5665C13.9521 18.0504 14.1214 17.5375 14.2916 17.0251C14.3501 16.8487 14.4079 16.6721 14.4657 16.4954C14.5032 16.3823 14.5407 16.2692 14.5783 16.1561C14.5953 16.1037 14.6124 16.0514 14.6299 15.9974C14.6464 15.9484 14.6628 15.8993 14.6798 15.8488C14.6939 15.8061 14.708 15.7633 14.7226 15.7193C14.8547 15.4118 15.0348 15.227 15.3072 15.0414C16.5452 14.1613 18.121 13.0258 18.4099 11.4435C18.5338 10.5779 18.5251 9.70459 18.4883 8.83309C18.4869 8.79929 18.4855 8.76549 18.484 8.73066C18.447 7.8489 18.3787 6.97123 18.282 6.09408C18.231 6.09367 18.18 6.09325 18.1275 6.09283C17.6471 6.0889 17.1666 6.08444 16.6862 6.07947C16.4392 6.07694 16.1922 6.07459 15.9452 6.07265C15.7068 6.07078 15.4684 6.06842 15.2301 6.06574C15.1391 6.0648 15.0482 6.06403 14.9573 6.06344C14.8299 6.06258 14.7025 6.0611 14.5751 6.05949C14.5375 6.05938 14.5 6.05927 14.4613 6.05915C14.2582 6.05586 14.0955 6.03782 13.9148 5.94173C13.8513 5.84017 13.8513 5.84017 13.8132 5.73861C13.7965 5.70509 13.7797 5.67158 13.7624 5.63704C13.7562 5.50693 13.753 5.37811 13.752 5.24793C13.7515 5.20779 13.751 5.16766 13.7505 5.12631C13.7489 4.99332 13.7476 4.86034 13.7464 4.72735C13.7453 4.63527 13.7443 4.54319 13.7432 4.45112C13.7404 4.20852 13.7379 3.96591 13.7354 3.72331C13.7329 3.47585 13.73 3.2284 13.7272 2.98095C13.7218 2.49522 13.7166 2.00949 13.7117 1.52376C12.2621 1.52145 10.8126 1.51965 9.36307 1.51858C9.1919 1.51845 9.02073 1.51832 8.84956 1.51818C8.81548 1.51816 8.7814 1.51813 8.74629 1.5181C8.19469 1.51766 7.64309 1.51686 7.09149 1.51593C6.5254 1.51498 5.95932 1.51442 5.39323 1.51421C5.0753 1.51408 4.75738 1.51376 4.43946 1.51303C4.14024 1.51234 3.84102 1.51212 3.5418 1.51228C3.43197 1.51225 3.32214 1.51205 3.21232 1.51166C3.06234 1.51115 2.91237 1.51127 2.76238 1.51155C2.71896 1.51125 2.67554 1.51096 2.6308 1.51065C2.22978 1.51266 1.95001 1.55883 1.67649 1.87923ZM15.2859 1.52376C15.2859 2.52923 15.2859 3.5347 15.2859 4.57064C16.2746 4.57064 17.2633 4.57064 18.282 4.57064C18.2078 4.09615 18.2078 4.09615 17.9524 3.78303C17.9293 3.75935 17.9063 3.73566 17.8825 3.71126C17.8071 3.63433 17.7303 3.55897 17.6533 3.4836C17.5999 3.42999 17.5465 3.3763 17.4931 3.32256C17.3815 3.2106 17.2693 3.09939 17.1564 2.98868C17.0125 2.84734 16.8703 2.70436 16.7286 2.56079C16.6187 2.44982 16.508 2.33973 16.397 2.22988C16.3443 2.1775 16.2918 2.12486 16.2395 2.07196C16.1662 1.99792 16.0917 1.92513 16.0169 1.85255C15.9749 1.81101 15.933 1.76946 15.8897 1.72666C15.7077 1.58745 15.7077 1.58745 15.2859 1.52376ZM22.7825 9.66146C22.7499 9.69445 22.7174 9.72744 22.6839 9.76143C22.6043 9.84214 22.5251 9.92307 22.446 10.0042C22.6612 10.2615 22.8865 10.5019 23.1252 10.7374C23.1578 10.7697 23.1903 10.802 23.2238 10.8353C23.303 10.9139 23.3823 10.9923 23.4617 11.0706C23.6666 10.8976 23.8677 10.7232 24.0583 10.5343C24.0958 10.4975 24.1332 10.4608 24.1718 10.423C24.3932 10.1763 24.455 9.99742 24.4443 9.67098C24.4102 9.4342 24.2894 9.30082 24.1155 9.1473C23.5264 8.9168 23.1751 9.25816 22.7825 9.66146ZM21.0462 11.3978C20.9966 11.4476 20.9966 11.4476 20.946 11.4985C20.894 11.5505 20.894 11.5505 20.8409 11.6036C20.7256 11.7189 20.6106 11.8343 20.4955 11.9498C20.4159 12.0295 20.3363 12.1092 20.2566 12.1889C20.0466 12.3991 19.8366 12.6096 19.6268 12.82C19.4127 13.0345 19.1986 13.2489 18.9845 13.4633C18.564 13.8844 18.1436 14.3056 17.7234 14.7269C17.8034 14.8957 17.89 15.007 18.0237 15.1387C18.0623 15.177 18.1009 15.2153 18.1407 15.2547C18.1811 15.2942 18.2214 15.3337 18.2629 15.3743C18.324 15.4347 18.324 15.4347 18.3863 15.4963C18.4867 15.5956 18.5874 15.6945 18.6882 15.7933C18.8316 15.728 18.9358 15.6599 19.0469 15.5484C19.0762 15.5192 19.1055 15.49 19.1357 15.46C19.1673 15.428 19.1989 15.3961 19.2314 15.3632C19.2819 15.3127 19.2819 15.3127 19.3335 15.2611C19.4448 15.1498 19.5557 15.0381 19.6665 14.9264C19.7437 14.8491 19.8208 14.7719 19.8979 14.6946C20.1009 14.4913 20.3035 14.2877 20.506 14.084C20.7128 13.8762 20.9199 13.6687 21.1269 13.4611C21.533 13.0539 21.9389 12.6464 22.3445 12.2386C22.2958 12.1815 22.2471 12.1245 22.1983 12.0675C22.1712 12.0357 22.1441 12.0039 22.1161 11.9712C22.0327 11.875 21.9463 11.7831 21.8563 11.6929C21.8254 11.662 21.7946 11.631 21.7628 11.5992C21.7316 11.5682 21.7005 11.5373 21.6684 11.5055C21.6363 11.4731 21.6042 11.4408 21.5711 11.4076C21.5253 11.3619 21.5253 11.3619 21.4786 11.3152C21.451 11.2877 21.4234 11.2602 21.395 11.2318C21.242 11.094 21.1624 11.2818 21.0462 11.3978ZM16.3918 16.0256C16.1251 16.2962 16.036 16.6495 15.9238 17.0025C15.9011 17.071 15.8782 17.1395 15.8553 17.2079C15.7406 17.5103 15.7406 17.5103 15.6921 17.8245C16.057 17.7367 16.4149 17.6244 16.7712 17.5072C16.8361 17.4871 16.8361 17.4871 16.9022 17.4667C17.2155 17.3609 17.4082 17.2128 17.6218 16.9613C17.407 16.7049 17.183 16.4638 16.9458 16.2281C16.8976 16.1797 16.8976 16.1797 16.8485 16.1302C16.8179 16.0997 16.7874 16.0693 16.7559 16.0379C16.7284 16.0104 16.7008 15.9828 16.6724 15.9545C16.5505 15.8447 16.5024 15.9286 16.3918 16.0256Z" fill="#3A3C98"/>
<path d="M3.96037 7.59709C4.00641 7.59681 4.05245 7.59654 4.09988 7.59626C4.25418 7.59553 4.40846 7.59589 4.56276 7.59626C4.67337 7.59597 4.78398 7.59561 4.89459 7.5952C5.19508 7.59429 5.49556 7.59435 5.79605 7.59464C6.04681 7.59479 6.29757 7.59449 6.54833 7.59418C7.13984 7.59346 7.73135 7.59355 8.32286 7.59412C8.93332 7.59471 9.54377 7.59399 10.1542 7.59263C10.6782 7.59151 11.2021 7.59117 11.7261 7.59147C12.0391 7.59164 12.3521 7.59151 12.6651 7.59064C12.9594 7.58986 13.2537 7.59005 13.548 7.59101C13.6561 7.5912 13.7641 7.59104 13.8722 7.59051C14.0196 7.58984 14.167 7.59042 14.3144 7.59132C14.3786 7.59059 14.3786 7.59059 14.4441 7.58984C14.7143 7.59323 14.8672 7.64143 15.082 7.8199C15.2332 8.01276 15.2726 8.1859 15.2852 8.42927C15.2364 8.7121 15.147 8.85314 14.9297 9.03865C14.7309 9.17117 14.5634 9.15447 14.3327 9.15345C14.2638 9.15374 14.2638 9.15374 14.1934 9.15404C14.0387 9.15456 13.8839 9.15436 13.7292 9.15416C13.6185 9.15438 13.5079 9.15464 13.3972 9.15495C13.0961 9.15563 12.7949 9.15565 12.4938 9.15553C12.2427 9.15547 11.9915 9.15572 11.7404 9.15596C11.1141 9.15656 10.4878 9.15651 9.86156 9.15619C9.35145 9.15594 8.84134 9.15638 8.33122 9.15728C7.73899 9.15833 7.14676 9.15886 6.55453 9.15868C6.24098 9.15858 5.92744 9.15872 5.61389 9.15942C5.31904 9.16006 5.0242 9.15996 4.72935 9.1593C4.62104 9.15918 4.51272 9.15932 4.40441 9.15974C4.25673 9.16027 4.10908 9.15986 3.9614 9.15921C3.91838 9.15959 3.87536 9.15996 3.83103 9.16035C3.59451 9.15817 3.44313 9.13901 3.25 8.98787C3.06656 8.79451 3.03078 8.63729 3.02148 8.37849C3.03078 8.11969 3.06656 7.96248 3.25 7.76912C3.47989 7.5894 3.68093 7.5951 3.96037 7.59709Z" fill="#3A3C98"/>
<path d="M3.84425 16.7384C3.87785 16.7381 3.91144 16.7378 3.94606 16.7375C4.05825 16.7368 4.17042 16.7372 4.28262 16.7375C4.36321 16.7373 4.4438 16.7369 4.52439 16.7365C4.74305 16.7356 4.96169 16.7356 5.18035 16.7359C5.36296 16.7361 5.54556 16.7358 5.72817 16.7355C6.159 16.7348 6.58982 16.7348 7.02064 16.7354C7.46496 16.736 7.90925 16.7353 8.35357 16.7339C8.7352 16.7328 9.11683 16.7325 9.49846 16.7328C9.72632 16.7329 9.95418 16.7328 10.182 16.7319C10.3963 16.7311 10.6106 16.7313 10.8249 16.7323C10.9034 16.7325 10.982 16.7323 11.0606 16.7318C11.168 16.7311 11.2754 16.7317 11.3828 16.7326C11.4428 16.7326 11.5029 16.7326 11.5648 16.7326C11.8117 16.7706 11.9738 16.8835 12.1267 17.0786C12.2304 17.3131 12.2496 17.5022 12.2061 17.7546C12.1038 18.0057 11.9522 18.1334 11.73 18.2815C11.5835 18.2944 11.5835 18.2944 11.4011 18.2947C11.3676 18.2949 11.334 18.2951 11.2994 18.2953C11.1868 18.2959 11.0742 18.2956 10.9616 18.2954C10.8809 18.2957 10.8003 18.2959 10.7196 18.2962C10.5003 18.2969 10.281 18.2969 10.0618 18.2968C9.87877 18.2968 9.69578 18.297 9.5128 18.2973C9.0811 18.2978 8.6494 18.2978 8.21771 18.2975C7.77224 18.2972 7.32679 18.2978 6.88132 18.2989C6.499 18.2998 6.11669 18.3001 5.73437 18.3C5.50597 18.2999 5.27757 18.3 5.04917 18.3007C4.83435 18.3014 4.61953 18.3013 4.40471 18.3006C4.32587 18.3005 4.24704 18.3006 4.16821 18.301C4.06055 18.3016 3.95293 18.3011 3.84528 18.3005C3.75493 18.3005 3.75493 18.3005 3.66275 18.3005C3.42349 18.2719 3.29542 18.1775 3.13212 18.0054C3.00723 17.7417 3.00747 17.5019 3.04643 17.2151C3.2186 16.8516 3.45258 16.7392 3.84425 16.7384Z" fill="#3A3C98"/>
<path d="M3.84425 13.6915C3.87785 13.6912 3.91144 13.691 3.94606 13.6907C4.05825 13.6899 4.17042 13.6903 4.28262 13.6907C4.36321 13.6904 4.4438 13.69 4.52439 13.6896C4.74305 13.6887 4.96169 13.6888 5.18035 13.6891C5.36296 13.6892 5.54556 13.6889 5.72817 13.6886C6.159 13.6879 6.58982 13.688 7.02064 13.6885C7.46496 13.6891 7.90925 13.6884 8.35357 13.687C8.7352 13.6859 9.11683 13.6856 9.49846 13.6859C9.72632 13.6861 9.95418 13.6859 10.182 13.6851C10.3963 13.6843 10.6106 13.6845 10.8249 13.6854C10.9034 13.6856 10.982 13.6855 11.0606 13.6849C11.168 13.6843 11.2754 13.6848 11.3828 13.6857C11.4428 13.6857 11.5029 13.6858 11.5648 13.6858C11.8117 13.7238 11.9738 13.8366 12.1267 14.0317C12.2304 14.2663 12.2496 14.4553 12.2061 14.7078C12.1038 14.9588 11.9522 15.0865 11.73 15.2346C11.5835 15.2475 11.5835 15.2475 11.4011 15.2479C11.3676 15.2481 11.334 15.2483 11.2994 15.2485C11.1868 15.249 11.0742 15.2488 10.9616 15.2486C10.8809 15.2488 10.8003 15.2491 10.7196 15.2494C10.5003 15.25 10.281 15.2501 10.0618 15.2499C9.87877 15.2499 9.69578 15.2501 9.5128 15.2504C9.0811 15.2509 8.6494 15.251 8.21771 15.2507C7.77224 15.2503 7.32679 15.251 6.88132 15.2521C6.499 15.253 6.11669 15.2533 5.73437 15.2531C5.50597 15.253 5.27757 15.2531 5.04917 15.2538C4.83435 15.2545 4.61953 15.2544 4.40471 15.2537C4.32587 15.2536 4.24704 15.2537 4.16821 15.2542C4.06055 15.2547 3.95293 15.2543 3.84528 15.2536C3.75493 15.2536 3.75493 15.2536 3.66275 15.2537C3.42349 15.2251 3.29542 15.1306 3.13212 14.9585C3.00723 14.6949 3.00747 14.4551 3.04643 14.1682C3.2186 13.8047 3.45258 13.6923 3.84425 13.6915Z" fill="#3A3C98"/>
<path d="M3.84425 10.6446C3.87785 10.6444 3.91144 10.6441 3.94606 10.6438C4.05825 10.6431 4.17042 10.6434 4.28262 10.6438C4.36321 10.6435 4.4438 10.6432 4.52439 10.6427C4.74305 10.6418 4.96169 10.6419 5.18035 10.6422C5.36296 10.6423 5.54556 10.642 5.72817 10.6417C6.159 10.641 6.58982 10.6411 7.02064 10.6417C7.46496 10.6422 7.90925 10.6415 8.35357 10.6402C8.7352 10.639 9.11683 10.6387 9.49846 10.639C9.72632 10.6392 9.95418 10.6391 10.182 10.6382C10.3963 10.6374 10.6106 10.6376 10.8249 10.6386C10.9034 10.6387 10.982 10.6386 11.0606 10.638C11.168 10.6374 11.2754 10.638 11.3828 10.6389C11.4428 10.6389 11.5029 10.6389 11.5648 10.6389C11.8117 10.6769 11.9738 10.7897 12.1267 10.9849C12.2304 11.2194 12.2496 11.4085 12.2061 11.6609C12.1038 11.9119 11.9522 12.0397 11.73 12.1878C11.5835 12.2007 11.5835 12.2007 11.4011 12.201C11.3676 12.2012 11.334 12.2014 11.2994 12.2016C11.1868 12.2021 11.0742 12.2019 10.9616 12.2017C10.8809 12.2019 10.8003 12.2022 10.7196 12.2025C10.5003 12.2032 10.281 12.2032 10.0618 12.2031C9.87877 12.203 9.69578 12.2033 9.5128 12.2035C9.0811 12.2041 8.6494 12.2041 8.21771 12.2038C7.77224 12.2035 7.32679 12.2041 6.88132 12.2052C6.499 12.2061 6.11669 12.2064 5.73437 12.2062C5.50597 12.2061 5.27757 12.2063 5.04917 12.207C4.83435 12.2076 4.61953 12.2075 4.40471 12.2068C4.32587 12.2067 4.24704 12.2069 4.16821 12.2073C4.06055 12.2078 3.95293 12.2074 3.84528 12.2068C3.75493 12.2068 3.75493 12.2068 3.66275 12.2068C3.42349 12.1782 3.29542 12.0838 3.13212 11.9116C3.00723 11.648 3.00747 11.4082 3.04643 11.1213C3.2186 10.7579 3.45258 10.6454 3.84425 10.6446Z" fill="#3A3C98"/>
<path d="M10.0971 21.4088C10.1722 21.4083 10.1722 21.4083 10.2488 21.4077C10.4142 21.4068 10.5795 21.407 10.7448 21.4073C10.8598 21.4071 10.9749 21.4068 11.0899 21.4065C11.331 21.406 11.572 21.4062 11.8131 21.4067C12.1219 21.4072 12.4306 21.4062 12.7394 21.4047C12.977 21.4038 13.2145 21.4038 13.4521 21.4041C13.5659 21.4041 13.6798 21.4038 13.7936 21.4032C13.9529 21.4024 14.1121 21.403 14.2713 21.4038C14.3182 21.4033 14.3652 21.4028 14.4135 21.4023C14.6954 21.4056 14.859 21.4432 15.082 21.6324C15.2332 21.8253 15.2726 21.9984 15.2852 22.2418C15.2364 22.5246 15.147 22.6657 14.9297 22.8512C14.7731 22.9555 14.7408 22.9655 14.5641 22.966C14.499 22.9665 14.499 22.9665 14.4325 22.9671C14.385 22.9669 14.3375 22.9668 14.2886 22.9667C14.2385 22.967 14.1883 22.9672 14.1367 22.9675C13.9706 22.9682 13.8045 22.9681 13.6383 22.968C13.523 22.9682 13.4077 22.9684 13.2924 22.9687C13.0505 22.9691 12.8087 22.969 12.5668 22.9688C12.2567 22.9685 11.9467 22.9693 11.6367 22.9705C11.3985 22.9713 11.1602 22.9713 10.922 22.9712C10.8077 22.9712 10.6934 22.9714 10.5791 22.972C10.4192 22.9726 10.2594 22.9722 10.0995 22.9717C10.0523 22.972 10.005 22.9724 9.95626 22.9728C9.7098 22.9708 9.54354 22.961 9.34375 22.8004C9.16031 22.607 9.12453 22.4498 9.11523 22.191C9.12453 21.9322 9.16031 21.775 9.34375 21.5817C9.58053 21.3918 9.80726 21.4074 10.0971 21.4088Z" fill="#3A3C98"/>
</g>
<defs>
<clipPath id="clip0_1937_2496">
<rect width="26" height="26" fill="white"/>
</clipPath>
</defs>
</svg>
