<svg width="30" height="30" viewBox="0 0 30 30" fill="none" xmlns="http://www.w3.org/2000/svg">
<path d="M15.9379 1.875C15.6893 1.875 15.4508 1.97377 15.275 2.14959C15.0992 2.3254 15.0004 2.56386 15.0004 2.8125V14.0625C15.0004 14.3111 15.0992 14.5496 15.275 14.7254C15.4508 14.9012 15.6893 15 15.9379 15H27.1879C27.4365 15 27.675 14.9012 27.8508 14.7254C28.0266 14.5496 28.1254 14.3111 28.1254 14.0625C28.1254 12.462 27.8102 10.8772 27.1977 9.39855C26.5852 7.91989 25.6875 6.57635 24.5558 5.44464C23.4241 4.31292 22.0805 3.4152 20.6019 2.80272C19.1232 2.19024 17.5384 1.875 15.9379 1.875ZM16.8754 13.125V3.79125C19.2771 4.01018 21.526 5.06387 23.2313 6.76913C24.9365 8.47439 25.9902 10.7234 26.2092 13.125H16.8754ZM13.1254 6.60375C13.1254 6.47352 13.0983 6.34471 13.0458 6.22555C12.9932 6.10638 12.9164 5.99946 12.8203 5.91161C12.7242 5.82376 12.6108 5.75691 12.4874 5.71531C12.364 5.67371 12.2332 5.65828 12.1035 5.67C9.97437 5.86412 7.9446 6.66094 6.25199 7.96712C4.55938 9.27329 3.27401 11.0347 2.54644 13.0451C1.81888 15.0555 1.67925 17.2316 2.1439 19.3185C2.60856 21.4054 3.65826 23.3167 5.17005 24.8285C6.68184 26.3403 8.59312 27.39 10.68 27.8546C12.7669 28.3193 14.943 28.1797 16.9534 27.4521C18.9638 26.7245 20.7252 25.4392 22.0314 23.7465C23.3376 22.0539 24.1344 20.0242 24.3285 17.895C24.34 17.7656 24.3244 17.6352 24.2828 17.5122C24.2412 17.3891 24.1744 17.2761 24.0868 17.1802C23.9992 17.0843 23.8926 17.0076 23.7738 16.9551C23.655 16.9025 23.5266 16.8753 23.3967 16.875H13.1254V6.60375ZM3.75041 16.875C3.74997 14.7138 4.49625 12.6188 5.86296 10.9446C7.22967 9.27034 9.13285 8.11974 11.2504 7.6875V17.8125C11.2504 18.0611 11.3492 18.2996 11.525 18.4754C11.7008 18.6512 11.9393 18.75 12.1879 18.75H22.3129C21.8424 21.0213 20.547 23.0377 18.6768 24.4097C16.8066 25.7817 14.4943 26.412 12.1866 26.1789C9.87881 25.9458 7.7393 24.8658 6.18125 23.1475C4.62321 21.4292 3.75717 19.1945 3.75041 16.875Z" fill="#3A3C98"/>
</svg>
