<svg width="30" height="31" viewBox="0 0 30 31" fill="none" xmlns="http://www.w3.org/2000/svg">
<path d="M10.8535 2.96286C10.9668 2.96254 11.0801 2.96213 11.1933 2.96162C11.4994 2.96055 11.8054 2.96096 12.1114 2.96171C12.4327 2.9623 12.7539 2.96175 13.0751 2.96138C13.6145 2.96096 14.1539 2.96152 14.6933 2.96263C15.3156 2.96391 15.9379 2.9635 16.5602 2.96221C17.0958 2.96114 17.6314 2.96099 18.167 2.9616C18.4863 2.96197 18.8056 2.96202 19.1249 2.96124C19.4253 2.96056 19.7256 2.96104 20.026 2.96239C20.1357 2.9627 20.2455 2.96262 20.3553 2.9621C21.4707 2.9573 22.1278 3.19946 22.9296 3.99152C22.9727 4.0347 23.0158 4.07787 23.0602 4.12235C23.1073 4.169 23.1543 4.21564 23.2028 4.2637C23.3567 4.41652 23.5102 4.56977 23.6636 4.72308C23.7712 4.83027 23.8788 4.93746 23.9864 5.04464C24.2111 5.26872 24.4357 5.49304 24.6601 5.71751C24.9185 5.97603 25.1776 6.23389 25.437 6.49145C25.6879 6.74062 25.9382 6.99044 26.1882 7.24051C26.294 7.34624 26.4001 7.45178 26.5063 7.55712C26.655 7.7046 26.8028 7.8528 26.9505 8.00121C26.9941 8.04414 27.0377 8.08708 27.0826 8.13132C27.6957 8.75178 27.9179 9.406 27.9137 10.268C27.9141 10.3382 27.9144 10.4085 27.9148 10.4809C27.9156 10.6746 27.9156 10.8684 27.9153 11.0621C27.9151 11.2716 27.916 11.481 27.9167 11.6905C27.918 12.1004 27.9182 12.5103 27.9181 12.9202C27.918 13.2536 27.9183 13.5869 27.9187 13.9203C27.9188 14.0165 27.9189 14.1127 27.9191 14.2088C27.9192 14.2807 27.9192 14.2807 27.9193 14.3539C27.9204 15.2587 27.9203 16.1635 27.9199 17.0682C27.9196 17.8948 27.9208 18.7214 27.9227 19.548C27.9247 20.3978 27.9256 21.2477 27.9253 22.0975C27.9252 22.5742 27.9255 23.0509 27.927 23.5275C27.9282 23.9334 27.9284 24.3393 27.9273 24.7452C27.9268 24.952 27.9267 25.1588 27.9279 25.3656C27.9292 25.5905 27.9282 25.8153 27.927 26.0402C27.9278 26.1047 27.9285 26.1691 27.9292 26.2355C27.9209 26.9713 27.6507 27.6099 27.1289 28.1299C26.5607 28.6207 25.955 28.8105 25.2121 28.8046C25.146 28.805 25.08 28.8054 25.0119 28.8058C24.7922 28.8069 24.5725 28.8063 24.3528 28.8057C24.1946 28.8061 24.0364 28.8066 23.8783 28.8072C23.4941 28.8085 23.11 28.8085 22.7259 28.808C22.4135 28.8076 22.1011 28.8077 21.7887 28.8081C21.7441 28.8081 21.6995 28.8082 21.6536 28.8082C21.563 28.8084 21.4725 28.8085 21.3819 28.8086C20.5337 28.8095 19.6856 28.809 18.8374 28.808C18.0628 28.8072 17.2881 28.808 16.5134 28.8097C15.7165 28.8115 14.9197 28.8121 14.1228 28.8115C14.0325 28.8115 13.9422 28.8114 13.852 28.8114C13.8076 28.8113 13.7632 28.8113 13.7174 28.8113C13.4057 28.8111 13.094 28.8117 12.7824 28.8126C12.402 28.8136 12.0216 28.8136 11.6413 28.8123C11.4475 28.8116 11.2538 28.8116 11.06 28.8125C10.081 28.8169 9.28484 28.8158 8.5089 28.1432C8.01483 27.6474 7.72701 27.0842 7.71878 26.382C7.72012 26.1831 7.72598 25.9849 7.73436 25.7862C7.68723 25.7796 7.68723 25.7796 7.63915 25.7729C5.93831 25.4875 4.40669 24.3413 3.41493 22.9638C2.26818 21.3243 1.84429 19.3759 2.16166 17.4009C2.48981 15.5491 3.57168 13.8109 5.11531 12.7288C5.83808 12.2387 6.83145 11.6065 7.73436 11.6065C7.73409 11.573 7.73382 11.5396 7.73354 11.5052C7.72705 10.6888 7.72223 9.87247 7.71918 9.05609C7.71768 8.66127 7.71563 8.26648 7.71226 7.87168C7.70906 7.49024 7.70732 7.10882 7.70657 6.72737C7.70603 6.58228 7.70497 6.43719 7.70339 6.29211C7.69318 5.32055 7.69801 4.53785 8.36562 3.76773C9.09661 3.0393 9.87421 2.95823 10.8535 2.96286ZM9.49217 4.751C9.14543 5.18958 9.13183 5.60803 9.13396 6.1491C9.13395 6.2063 9.13394 6.2635 9.13393 6.32243C9.13397 6.51075 9.13443 6.69907 9.13489 6.88738C9.135 7.01825 9.13508 7.14912 9.13514 7.27998C9.13536 7.62387 9.13594 7.96775 9.13659 8.31164C9.13719 8.66277 9.13746 9.0139 9.13775 9.36503C9.13838 10.0536 9.13938 10.7421 9.14061 11.4307C9.17312 11.4319 9.20563 11.4332 9.23912 11.4345C9.38971 11.4405 9.54028 11.4472 9.69084 11.4538C9.74195 11.4558 9.79306 11.4577 9.84571 11.4598C11.711 11.5447 13.4881 12.4264 14.7656 13.7744C16.2565 15.4454 16.6809 17.4493 16.582 19.6338C16.5463 20.0172 16.4631 20.3804 16.3476 20.7471C16.3332 20.7935 16.3187 20.8398 16.3038 20.8876C15.6979 22.7743 14.4132 24.2914 12.6562 25.2002C11.5223 25.7414 10.3794 25.9158 9.14061 25.9619C9.15582 26.3795 9.20472 26.698 9.49217 27.0166C9.92948 27.3783 10.3756 27.3769 10.9211 27.376C10.9823 27.3762 11.0435 27.3763 11.1066 27.3764C11.3117 27.3768 11.5168 27.3767 11.7219 27.3767C11.869 27.3769 12.0161 27.3771 12.1631 27.3773C12.5211 27.3778 12.8791 27.3779 13.2371 27.378C13.5282 27.378 13.8193 27.3781 14.1103 27.3783C14.9359 27.3788 15.7615 27.3791 16.5872 27.3791C16.6316 27.3791 16.6761 27.379 16.722 27.379C16.7665 27.379 16.811 27.379 16.8569 27.379C17.5788 27.379 18.3006 27.3796 19.0224 27.3804C19.764 27.3812 20.5056 27.3816 21.2472 27.3816C21.6634 27.3816 22.0795 27.3817 22.4957 27.3824C22.8871 27.383 23.2785 27.3829 23.6699 27.3825C23.8135 27.3825 23.9571 27.3826 24.1007 27.3829C24.2968 27.3834 24.4929 27.3831 24.689 27.3827C24.7742 27.3831 24.7742 27.3831 24.861 27.3836C25.3351 27.3812 25.7571 27.3339 26.1328 27.0166C26.4894 26.5655 26.493 26.1315 26.4914 25.5757C26.4915 25.5132 26.4915 25.4507 26.4916 25.3863C26.4917 25.1768 26.4913 24.9674 26.491 24.7579C26.491 24.6078 26.491 24.4576 26.491 24.3075C26.4911 23.9843 26.4909 23.661 26.4906 23.3378C26.4901 22.8705 26.4899 22.4031 26.4899 21.9358C26.4897 21.1775 26.4893 20.4192 26.4888 19.661C26.4882 18.9245 26.4878 18.188 26.4876 17.4515C26.4876 17.406 26.4875 17.3606 26.4875 17.3138C26.4875 17.086 26.4874 16.8582 26.4873 16.6304C26.4867 14.7409 26.4857 12.8514 26.4844 10.9619C26.401 10.9618 26.401 10.9618 26.316 10.9617C25.7894 10.9607 25.2628 10.9582 24.7361 10.9542C24.4655 10.9522 24.1948 10.9507 23.9242 10.9505C23.6624 10.9502 23.4006 10.9485 23.1389 10.9459C23.0396 10.9452 22.9403 10.9449 22.841 10.9452C22.0565 10.9468 21.3641 10.8462 20.7419 10.3176C20.0415 9.61445 19.9452 8.84968 19.9447 7.90705C19.9439 7.80551 19.9429 7.70396 19.9418 7.60241C19.9393 7.33723 19.9381 7.07206 19.9372 6.80687C19.936 6.53543 19.9336 6.264 19.9312 5.99257C19.9268 5.46153 19.9239 4.93049 19.9219 4.39944C18.677 4.3967 17.4322 4.39463 16.1874 4.39337C15.6094 4.39276 15.0314 4.39194 14.4534 4.3906C13.9496 4.38943 13.4457 4.38867 12.9418 4.38841C12.6751 4.38826 12.4084 4.3879 12.1417 4.38705C11.8904 4.38625 11.6392 4.38601 11.388 4.38618C11.2959 4.38615 11.2039 4.38592 11.1119 4.38547C10.2453 4.36709 10.2453 4.36709 9.49217 4.751ZM21.3281 4.57522C21.3254 5.0637 21.3233 5.55218 21.322 6.04067C21.3214 6.26753 21.3206 6.49439 21.3193 6.72124C21.318 6.94046 21.3173 7.15967 21.317 7.37888C21.3168 7.46223 21.3164 7.54557 21.3157 7.62892C21.3 8.47326 21.3 8.47326 21.6797 9.20413C22.0625 9.5068 22.4053 9.56328 22.8895 9.56234C22.9657 9.56234 23.042 9.56233 23.1205 9.56233C23.2028 9.56203 23.2851 9.56172 23.3674 9.56141C23.4523 9.5613 23.5372 9.56122 23.6221 9.56116C23.8446 9.56094 24.0671 9.56036 24.2896 9.55971C24.5171 9.55911 24.7445 9.55884 24.9719 9.55855C25.4175 9.55792 25.863 9.55692 26.3086 9.55569C26.0713 9.22188 25.8139 8.92692 25.5237 8.63849C25.4819 8.59641 25.44 8.55433 25.3968 8.51098C25.2597 8.37331 25.1221 8.23607 24.9845 8.09886C24.8885 8.00275 24.7925 7.90663 24.6965 7.81049C24.4959 7.60971 24.295 7.40914 24.0941 7.20872C23.8366 6.95194 23.5797 6.69463 23.3229 6.43716C23.125 6.23885 22.9269 6.04082 22.7286 5.84287C22.6338 5.74809 22.539 5.65322 22.4443 5.55826C22.3121 5.42573 22.1795 5.29359 22.0468 5.16154C22.0078 5.12237 21.9689 5.08319 21.9288 5.04283C21.7404 4.85613 21.5661 4.69874 21.3281 4.57522ZM5.33202 14.4776C5.29607 14.5079 5.26011 14.5381 5.22307 14.5693C4.28437 15.4253 3.64402 16.8372 3.56383 18.0976C3.52579 19.8724 3.89888 21.4074 5.14355 22.728C5.88907 23.492 6.76936 24.0199 7.79296 24.3213C7.85232 24.34 7.91169 24.3586 7.97286 24.3778C9.44072 24.7692 11.0005 24.4774 12.3079 23.7535C13.6857 22.9123 14.6685 21.618 15.0842 20.0586C15.442 18.5298 15.145 16.9513 14.3471 15.6209C13.5013 14.2735 12.1493 13.3248 10.6018 12.9651C8.61305 12.5871 6.8378 13.1683 5.33202 14.4776Z" fill="#3A3C98"/>
<path d="M9.72624 15.1802C9.94236 15.3037 10.0438 15.4216 10.1364 15.649C10.1521 15.7994 10.1521 15.7994 10.1534 15.9712C10.1542 16.0358 10.1549 16.1003 10.1557 16.1668C10.1558 16.2363 10.1559 16.3057 10.1561 16.3773C10.1565 16.449 10.1569 16.5206 10.1573 16.5945C10.1579 16.7461 10.1581 16.8977 10.1581 17.0493C10.1584 17.281 10.1605 17.5127 10.1627 17.7444C10.1631 17.8917 10.1633 18.0391 10.1634 18.1864C10.1642 18.2556 10.1651 18.3248 10.166 18.3961C10.1634 18.8575 10.1108 19.0549 9.79958 19.3931C9.76564 19.4244 9.73169 19.4556 9.69672 19.4878C9.65843 19.5234 9.62015 19.5589 9.5807 19.5956C9.54051 19.6322 9.50032 19.6689 9.45891 19.7066C9.41751 19.7448 9.37611 19.7831 9.33345 19.8225C9.21078 19.9355 9.08767 20.0481 8.96452 20.1607C8.89758 20.2225 8.83067 20.2843 8.76379 20.3461C8.23598 20.8318 8.23598 20.8318 7.85719 20.8249C7.63272 20.789 7.52854 20.6792 7.38249 20.5123C7.26397 20.2712 7.24772 20.1125 7.31451 19.8506C7.40672 19.6484 7.53031 19.5591 7.71254 19.4358C8.12997 19.1384 8.53228 18.8284 8.64686 18.3073C8.72195 17.748 8.70788 17.1835 8.68966 16.6207C8.68678 16.5291 8.68678 16.5291 8.68384 16.4356C8.67942 16.3196 8.67354 16.2036 8.66598 16.0877C8.64945 15.751 8.67186 15.5617 8.90593 15.2974C9.16701 15.1234 9.42006 15.1435 9.72624 15.1802Z" fill="#3A3C98"/>
<path d="M18.9487 20.7944C19.025 20.7936 19.025 20.7936 19.1029 20.7929C19.2717 20.7914 19.4406 20.7905 19.6095 20.7896C19.6671 20.7893 19.7248 20.789 19.7841 20.7887C20.0892 20.7871 20.3943 20.786 20.6994 20.7851C21.0146 20.7842 21.3297 20.7815 21.6448 20.7786C21.8871 20.7766 22.1293 20.7759 22.3716 20.7756C22.4878 20.7752 22.6039 20.7743 22.7201 20.7729C22.8828 20.771 23.0454 20.771 23.2081 20.7715C23.256 20.7705 23.3039 20.7695 23.3532 20.7686C23.5946 20.7712 23.744 20.7927 23.935 20.947C24.1605 21.1799 24.1633 21.3374 24.1615 21.6523C24.1276 21.8931 24.0233 21.99 23.8475 22.1533C23.6571 22.2485 23.4477 22.2221 23.2385 22.2232C23.1876 22.2237 23.1367 22.2242 23.0843 22.2247C22.9154 22.2261 22.7465 22.2271 22.5776 22.2279C22.52 22.2282 22.4624 22.2286 22.403 22.2289C22.0979 22.2304 21.7928 22.2316 21.4877 22.2324C21.1726 22.2334 20.8575 22.236 20.5424 22.239C20.3001 22.241 20.0578 22.2417 19.8155 22.242C19.6994 22.2424 19.5832 22.2433 19.4671 22.2447C19.3043 22.2465 19.1417 22.2465 18.979 22.2461C18.9311 22.2471 18.8833 22.248 18.8339 22.249C18.5925 22.2464 18.4431 22.2249 18.2521 22.0706C18.0266 21.8376 18.0238 21.6801 18.0256 21.3653C18.0596 21.1245 18.1638 21.0275 18.3397 20.8643C18.53 20.7691 18.7394 20.7954 18.9487 20.7944Z" fill="#3A3C98"/>
<path d="M18.9487 13.2944C19.025 13.2936 19.025 13.2936 19.1029 13.2929C19.2717 13.2914 19.4406 13.2905 19.6095 13.2896C19.6671 13.2893 19.7248 13.289 19.7841 13.2887C20.0892 13.2871 20.3943 13.286 20.6994 13.2851C21.0146 13.2842 21.3297 13.2815 21.6448 13.2786C21.8871 13.2766 22.1293 13.2759 22.3716 13.2756C22.4878 13.2752 22.6039 13.2743 22.7201 13.2729C22.8828 13.271 23.0454 13.271 23.2081 13.2715C23.256 13.2705 23.3039 13.2695 23.3532 13.2686C23.5946 13.2712 23.744 13.2927 23.935 13.447C24.1605 13.6799 24.1633 13.8374 24.1615 14.1523C24.1276 14.3931 24.0233 14.49 23.8475 14.6533C23.6571 14.7485 23.4477 14.7221 23.2385 14.7232C23.1876 14.7237 23.1367 14.7242 23.0843 14.7247C22.9154 14.7261 22.7465 14.7271 22.5776 14.7279C22.52 14.7282 22.4624 14.7286 22.403 14.7289C22.0979 14.7304 21.7928 14.7316 21.4877 14.7324C21.1726 14.7334 20.8575 14.736 20.5424 14.739C20.3001 14.741 20.0578 14.7417 19.8155 14.742C19.6994 14.7424 19.5832 14.7433 19.4671 14.7447C19.3043 14.7465 19.1417 14.7465 18.979 14.7461C18.9311 14.7471 18.8833 14.748 18.8339 14.749C18.5925 14.7464 18.4431 14.7249 18.2521 14.5706C18.0266 14.3376 18.0238 14.1801 18.0256 13.8653C18.0596 13.6245 18.1638 13.5275 18.3397 13.3643C18.53 13.2691 18.7394 13.2954 18.9487 13.2944Z" fill="#3A3C98"/>
<path d="M19.8002 17.0448C19.842 17.0444 19.8837 17.0439 19.9267 17.0434C20.0652 17.0419 20.2036 17.041 20.3421 17.0401C20.3894 17.0398 20.4366 17.0395 20.4854 17.0392C20.7358 17.0376 20.9861 17.0365 21.2365 17.0356C21.4949 17.0346 21.7533 17.032 22.0116 17.029C22.2105 17.0271 22.4093 17.0264 22.6082 17.0261C22.7034 17.0257 22.7986 17.0248 22.8938 17.0234C23.0274 17.0215 23.1608 17.0215 23.2944 17.0219C23.3703 17.0215 23.4461 17.021 23.5243 17.0205C23.7953 17.0673 23.889 17.1568 24.082 17.3491C24.1911 17.5673 24.1741 17.8146 24.1406 18.0522C24.0426 18.2354 23.9188 18.3682 23.7304 18.4624C23.5953 18.4693 23.46 18.4723 23.3247 18.4737C23.2621 18.4744 23.2621 18.4744 23.1982 18.4751C23.0597 18.4766 22.9213 18.4776 22.7829 18.4784C22.7119 18.4789 22.7119 18.4789 22.6396 18.4793C22.3892 18.4809 22.1388 18.4821 21.8884 18.4829C21.63 18.4839 21.3717 18.4865 21.1133 18.4895C20.9145 18.4915 20.7156 18.4921 20.5167 18.4925C20.4215 18.4929 20.3263 18.4937 20.2311 18.4951C20.0975 18.497 19.9641 18.497 19.8306 18.4966C19.7167 18.4973 19.7167 18.4973 19.6006 18.498C19.3297 18.4512 19.2359 18.3617 19.0429 18.1694C18.9338 17.9512 18.9509 17.7039 18.9843 17.4663C19.1822 17.0965 19.4052 17.0488 19.8002 17.0448Z" fill="#3A3C98"/>
<path d="M14.089 9.5439C14.1559 9.54296 14.2228 9.54202 14.2917 9.54105C14.5981 9.53845 14.9044 9.53601 15.2108 9.53469C15.3724 9.53391 15.534 9.53228 15.6957 9.52988C15.9285 9.52643 16.1613 9.52539 16.3941 9.52453C16.4663 9.5232 16.5384 9.52188 16.6128 9.52051C17.172 9.52189 17.172 9.52189 17.3882 9.69628C17.5935 9.9342 17.6007 10.0947 17.5989 10.4018C17.565 10.6426 17.4607 10.7396 17.2849 10.9029C17.1325 10.9791 17.0187 10.9706 16.848 10.9728C16.7811 10.9737 16.7142 10.9746 16.6453 10.9756C16.339 10.9782 16.0326 10.9806 15.7262 10.982C15.5646 10.9827 15.403 10.9844 15.2413 10.9868C15.0085 10.9902 14.7757 10.9913 14.5429 10.9921C14.4708 10.9935 14.3986 10.9948 14.3243 10.9961C13.765 10.9948 13.765 10.9948 13.5488 10.8204C13.3435 10.5825 13.3363 10.4219 13.3381 10.1148C13.372 9.87403 13.4763 9.77707 13.6521 9.6138C13.8045 9.53759 13.9183 9.54608 14.089 9.5439Z" fill="#3A3C98"/>
</svg>
