<svg width="14" height="16" viewBox="0 0 14 16" fill="none" xmlns="http://www.w3.org/2000/svg">
<path d="M1.99967 15.5C1.52967 15.5 1.1344 15.3397 0.813841 15.0192C0.493286 14.6986 0.333008 14.3033 0.333008 13.8333V12.8717C0.333008 12.5017 0.464952 12.185 0.728841 11.9217C0.99273 11.6583 1.3094 11.5264 1.67884 11.5258H2.83301V1.84667C2.83301 1.47611 2.96495 1.15917 3.22884 0.895833C3.49273 0.6325 3.8094 0.500556 4.17884 0.5H12.3205C12.6905 0.5 13.0072 0.631944 13.2705 0.895833C13.5338 1.15972 13.6658 1.47639 13.6663 1.84583V13.8333C13.6663 14.3033 13.5061 14.6986 13.1855 15.0192C12.865 15.3397 12.4697 15.5 11.9997 15.5H1.99967ZM11.9997 14.6667C12.2358 14.6667 12.4338 14.5867 12.5938 14.4267C12.7538 14.2667 12.8336 14.0689 12.833 13.8333V1.84667C12.833 1.69667 12.785 1.57361 12.6888 1.4775C12.5927 1.38139 12.47 1.33333 12.3205 1.33333H4.17884C4.0294 1.33333 3.90662 1.38139 3.81051 1.4775C3.7144 1.57361 3.66634 1.69667 3.66634 1.84667V11.525H9.82051C10.1905 11.525 10.5072 11.6567 10.7705 11.92C11.0338 12.1833 11.1658 12.5006 11.1663 12.8717V13.8333C11.1663 14.0694 11.2463 14.2675 11.4063 14.4275C11.5663 14.5875 11.7641 14.6672 11.9997 14.6667ZM5.23717 4.9875C5.11884 4.9875 5.01967 4.9475 4.93967 4.8675C4.86023 4.7875 4.82051 4.68833 4.82051 4.57C4.82051 4.45167 4.86023 4.35278 4.93967 4.27333C5.01912 4.19389 5.11829 4.15417 5.23717 4.15417H11.2622C11.3805 4.15417 11.4797 4.19417 11.5597 4.27417C11.6397 4.35417 11.6794 4.45306 11.6788 4.57083C11.6783 4.68861 11.6386 4.7875 11.5597 4.8675C11.4808 4.9475 11.3816 4.9875 11.2622 4.9875H5.23717ZM5.23717 7.295C5.11884 7.295 5.01967 7.255 4.93967 7.175C4.86023 7.095 4.82051 6.99583 4.82051 6.8775C4.82051 6.75917 4.86023 6.66028 4.93967 6.58083C5.01912 6.50139 5.11829 6.46167 5.23717 6.46167H11.2622C11.3805 6.46167 11.4797 6.50167 11.5597 6.58167C11.6397 6.66167 11.6794 6.76083 11.6788 6.87917C11.6783 6.9975 11.6386 7.09639 11.5597 7.17583C11.4808 7.25528 11.3816 7.295 11.2622 7.295H5.23717Z" fill="white"/>
</svg>
