<svg width="23" height="22" viewBox="0 0 23 22" fill="none" xmlns="http://www.w3.org/2000/svg">
<path d="M2.52 21.3008C1.94417 21.3008 1.46375 21.1083 1.07875 20.7233C0.69375 20.3383 0.500833 19.8574 0.5 19.2808V15.8208C0.5 15.2449 0.692916 14.7645 1.07875 14.3795C1.46458 13.9945 1.945 13.8016 2.52 13.8008H14.875V8.80078H16.125V13.8008H18.4813C19.0562 13.8008 19.5363 13.9937 19.9213 14.3795C20.3063 14.7654 20.4992 15.2458 20.5 15.8208V19.282C20.5 19.857 20.3071 20.3374 19.9213 20.7233C19.5354 21.1091 19.0554 21.3016 18.4813 21.3008H2.52ZM4.25 18.5133C4.52333 18.5133 4.75167 18.4208 4.935 18.2358C5.11833 18.0508 5.21 17.8216 5.21 17.5483C5.21 17.2749 5.11792 17.047 4.93375 16.8645C4.74958 16.682 4.52042 16.5904 4.24625 16.5895C3.97208 16.5887 3.74417 16.6808 3.5625 16.8658C3.38083 17.0508 3.28917 17.2799 3.2875 17.5533C3.28583 17.8266 3.37792 18.0545 3.56375 18.237C3.74958 18.4195 3.97875 18.5112 4.25125 18.512M8.62625 18.512C8.89875 18.512 9.12667 18.4199 9.31 18.2358C9.49333 18.0516 9.585 17.8224 9.585 17.5483C9.585 17.2741 9.49292 17.0462 9.30875 16.8645C9.12458 16.6829 8.89542 16.5912 8.62125 16.5895C8.34708 16.5879 8.11917 16.6799 7.9375 16.8658C7.75583 17.0516 7.66417 17.2808 7.6625 17.5533C7.66083 17.8258 7.75292 18.0537 7.93875 18.237C8.12458 18.4204 8.35375 18.512 8.62625 18.512ZM13.0013 18.512C13.2738 18.512 13.5017 18.4199 13.685 18.2358C13.8683 18.0516 13.96 17.8224 13.96 17.5483C13.96 17.2741 13.8679 17.0462 13.6838 16.8645C13.4996 16.6829 13.2704 16.5912 12.9963 16.5895C12.7221 16.5879 12.4942 16.6799 12.3125 16.8658C12.1308 17.0516 12.0392 17.2808 12.0375 17.5533C12.0358 17.8258 12.1279 18.0537 12.3138 18.237C12.4996 18.4204 12.7288 18.512 13.0013 18.512ZM12.8787 6.80578L11.9787 5.90578C12.5204 5.40578 13.0767 5.03411 13.6475 4.79078C14.2183 4.54745 14.8358 4.42578 15.5 4.42578C16.1642 4.42578 16.7808 4.54745 17.35 4.79078C17.9217 5.03495 18.4783 5.40703 19.02 5.90703L18.12 6.80578C17.7642 6.44995 17.3721 6.17286 16.9438 5.97453C16.5146 5.77536 16.0333 5.67578 15.5 5.67578C14.9667 5.67578 14.4854 5.77536 14.0563 5.97453C13.6271 6.1737 13.235 6.45078 12.88 6.80578M9.755 3.68078L8.87 2.79578C9.73917 1.92745 10.7338 1.25286 11.8538 0.772031C12.9738 0.291198 14.1892 0.0507812 15.5 0.0507812C16.8108 0.0507812 18.0262 0.291198 19.1462 0.772031C20.2663 1.25286 21.2608 1.92786 22.13 2.79703L21.245 3.68078C20.5575 2.99328 19.7283 2.42495 18.7575 1.97578C17.7883 1.52578 16.7025 1.30078 15.5 1.30078C14.2975 1.30078 13.2112 1.52578 12.2412 1.97578C11.2712 2.42578 10.4421 2.99411 9.75375 3.68078" fill="white"/>
</svg>
