<svg width="30" height="30" viewBox="0 0 30 30" fill="none" xmlns="http://www.w3.org/2000/svg">
<path d="M23.471 11.2721C24.0603 11.795 24.6425 12.347 25.0781 13.0079C24.9015 13.1527 24.7328 13.2369 24.5199 13.3182C24.4224 13.3558 24.4224 13.3558 24.323 13.3941C24.253 13.4207 24.183 13.4472 24.1109 13.4746C24.0377 13.5026 23.9646 13.5307 23.8914 13.5588C23.6989 13.6328 23.5063 13.7063 23.3136 13.7796C23.0812 13.8682 22.8491 13.9573 22.6169 14.0463C22.4358 14.1157 22.2547 14.185 22.0735 14.2542C22.0074 14.2794 21.9414 14.3046 21.8733 14.3306C21.8106 14.3544 21.7478 14.3782 21.6832 14.4027C21.5665 14.4483 21.4505 14.4958 21.3355 14.5455C21.2844 14.5675 21.2332 14.5895 21.1805 14.6123C21.1146 14.6419 21.1146 14.6419 21.0473 14.6721C20.8841 14.7163 20.7853 14.6996 20.625 14.6485C20.5069 14.5364 20.404 14.4276 20.2991 14.3043C20.2366 14.2341 20.1739 14.1642 20.1109 14.0944C20.0793 14.0593 20.0477 14.0242 20.0151 13.9881C18.3026 12.1278 15.7215 11.098 13.2275 10.9681C10.8743 10.8778 8.49881 11.5704 6.62109 13.0079C6.57192 13.0448 6.52275 13.0818 6.47209 13.1198C4.35371 14.76 3.17425 16.9881 2.57812 19.5704C2.52012 19.5704 2.46211 19.5704 2.40234 19.5704C2.64009 16.8948 3.72784 14.2866 5.56664 12.3135C5.67327 12.1987 5.77366 12.0808 5.87402 11.9605C7.89273 9.66004 11.0698 8.34711 14.0703 8.09662C17.543 7.87751 20.8549 8.98198 23.471 11.2721Z" fill="#3A3C98"/>
<path d="M26.0155 13.7113C25.8122 13.9243 25.6055 14.0977 25.3636 14.2679C25.3106 14.3053 25.3106 14.3053 25.2566 14.3434C24.9194 14.5803 24.5789 14.8125 24.2383 15.0446C23.8587 15.3035 23.4811 15.5652 23.1041 15.828C22.724 16.0928 22.3437 16.3572 21.9615 16.619C21.6121 16.8585 21.2647 17.1008 20.9178 17.3441C20.5342 17.6132 20.1494 17.8805 19.7629 18.1454C19.3556 18.4248 18.9505 18.7073 18.5453 18.9896C18.2509 19.1946 17.9563 19.399 17.6602 19.6015C17.5478 19.6786 17.4357 19.7562 17.3237 19.8339C17.1781 19.9345 17.0308 20.0319 16.8819 20.1277C16.4827 20.3903 16.222 20.6185 16.0159 21.062C15.794 21.4837 15.3758 21.7025 14.9413 21.8558C14.4053 22.0207 13.8269 21.9179 13.3368 21.6672C12.8911 21.3952 12.5317 20.9975 12.3888 20.4873C12.2725 19.7847 12.3576 19.2063 12.755 18.6185C13.1074 18.1823 13.5715 17.953 14.1209 17.8714C14.257 17.8793 14.3929 17.8885 14.5288 17.8987C15.1971 17.9178 15.7769 17.6252 16.3805 17.3697C16.5054 17.3183 16.6303 17.2671 16.7554 17.2161C17.0079 17.1129 17.2602 17.0091 17.5123 16.9049C17.9723 16.7157 18.436 16.5371 18.9009 16.3603C19.1328 16.2721 19.3644 16.1832 19.596 16.0944C19.6418 16.0768 19.6876 16.0593 19.7347 16.0412C20.524 15.7385 21.3108 15.4296 22.0981 15.1217C22.4696 14.9764 22.8413 14.8314 23.213 14.6865C23.3216 14.6442 23.4301 14.6019 23.5387 14.5596C23.6942 14.499 23.8497 14.4383 24.0053 14.3778C24.1017 14.3402 24.1981 14.3026 24.2945 14.265C24.3862 14.2293 24.4779 14.1936 24.5697 14.158C24.787 14.0733 25.0034 13.9871 25.2187 13.8972C25.2592 13.8804 25.2997 13.8636 25.3415 13.8464C25.4509 13.8009 25.56 13.7548 25.6691 13.7087C25.8397 13.6527 25.8397 13.6527 26.0155 13.7113Z" fill="#3A3C98"/>
<path d="M26.0741 14.7656C26.2499 14.8242 26.2499 14.8242 26.3423 14.9831C26.3758 15.0543 26.4084 15.1259 26.4403 15.1978C26.4668 15.2566 26.4668 15.2566 26.4938 15.3166C27.0342 16.538 27.4161 17.8262 27.5389 19.1602C27.5454 19.2233 27.5518 19.2864 27.5584 19.3515C27.6016 19.8288 27.6341 20.3221 27.5975 20.8008C27.4552 20.9431 27.3811 20.9317 27.1869 20.9325C27.1462 20.9321 27.1055 20.9317 27.0636 20.9313C26.9993 20.9313 26.9993 20.9313 26.9337 20.9313C26.7916 20.9312 26.6496 20.9303 26.5076 20.9294C26.4092 20.9292 26.3109 20.929 26.2125 20.9289C25.9534 20.9285 25.6943 20.9273 25.4352 20.926C25.1708 20.9248 24.9065 20.9243 24.6422 20.9237C24.1234 20.9224 23.6046 20.9204 23.0858 20.918C22.957 20.6838 22.9435 20.4662 22.9247 20.2039C22.8826 19.7245 22.7926 19.265 22.6793 18.7976C22.6645 18.7361 22.6497 18.6745 22.6344 18.6111C22.5692 18.3498 22.5005 18.0965 22.4008 17.8461C22.3289 17.65 22.2968 17.547 22.3241 17.3438C22.421 17.2447 22.421 17.2447 22.5587 17.1558C22.6355 17.105 22.6355 17.105 22.714 17.0531C22.7702 17.0173 22.8264 16.9815 22.8844 16.9446C23.0031 16.8665 23.1217 16.7883 23.2403 16.71C23.3019 16.6697 23.3635 16.6294 23.4269 16.588C23.7247 16.3911 24.0167 16.1863 24.3089 15.9814C24.4208 15.9034 24.5326 15.8255 24.6445 15.7475C24.6977 15.7105 24.7509 15.6734 24.8057 15.6352C25.0375 15.474 25.27 15.3137 25.5028 15.1538C25.5409 15.1277 25.5789 15.1015 25.6181 15.0746C25.7695 14.9707 25.9213 14.8675 26.0741 14.7656Z" fill="#3A3C98"/>
</svg>
