<svg width="30" height="30" viewBox="0 0 30 30" fill="none" xmlns="http://www.w3.org/2000/svg">
<g clip-path="url(#clip0_1937_2508)">
<path d="M6.42843 15V9.36428C6.44517 8.25649 6.68033 7.16289 7.12044 6.14614C7.56055 5.12939 8.19697 4.20948 8.99321 3.43911C9.78946 2.66874 10.7299 2.06306 11.7606 1.65677C12.7914 1.25048 13.8921 1.05156 14.9999 1.07142C16.1076 1.05156 17.2084 1.25048 18.2391 1.65677C19.2698 2.06306 20.2103 2.66874 21.0065 3.43911C21.8028 4.20948 22.4392 5.12939 22.8793 6.14614C23.3194 7.16289 23.5546 8.25649 23.5713 9.36428V15M19.2856 26.25C20.4222 26.25 21.5123 25.7985 22.316 24.9947C23.1198 24.191 23.5713 23.1009 23.5713 21.9643V17.1428M19.2856 26.25C19.2856 26.9604 19.0034 27.6417 18.501 28.144C17.9987 28.6464 17.3174 28.9286 16.607 28.9286H13.3927C12.6823 28.9286 12.001 28.6464 11.4987 28.144C10.9964 27.6417 10.7141 26.9604 10.7141 26.25C10.7141 25.5396 10.9964 24.8583 11.4987 24.356C12.001 23.8536 12.6823 23.5714 13.3927 23.5714H16.607C17.3174 23.5714 17.9987 23.8536 18.501 24.356C19.0034 24.8583 19.2856 25.5396 19.2856 26.25ZM3.21415 11.7857H5.357C5.64116 11.7857 5.91369 11.8986 6.11462 12.0995C6.31555 12.3005 6.42843 12.573 6.42843 12.8571V19.2857C6.42843 19.5699 6.31555 19.8424 6.11462 20.0433C5.91369 20.2443 5.64116 20.3571 5.357 20.3571H3.21415C2.64583 20.3571 2.10078 20.1314 1.69892 19.7295C1.29705 19.3276 1.07129 18.7826 1.07129 18.2143V13.9286C1.07129 13.3602 1.29705 12.8152 1.69892 12.4133C2.10078 12.0115 2.64583 11.7857 3.21415 11.7857ZM26.7856 20.3571H24.6427C24.3586 20.3571 24.086 20.2443 23.8851 20.0433C23.6842 19.8424 23.5713 19.5699 23.5713 19.2857V12.8571C23.5713 12.573 23.6842 12.3005 23.8851 12.0995C24.086 11.8986 24.3586 11.7857 24.6427 11.7857H26.7856C27.3539 11.7857 27.8989 12.0115 28.3008 12.4133C28.7027 12.8152 28.9284 13.3602 28.9284 13.9286V18.2143C28.9284 18.7826 28.7027 19.3276 28.3008 19.7295C27.8989 20.1314 27.3539 20.3571 26.7856 20.3571Z" stroke="#3A3C98" stroke-width="2" stroke-linecap="round" stroke-linejoin="round"/>
</g>
<defs>
<clipPath id="clip0_1937_2508">
<rect width="30" height="30" fill="white"/>
</clipPath>
</defs>
</svg>
