<svg width="20" height="19" viewBox="0 0 20 19" fill="none" xmlns="http://www.w3.org/2000/svg">
<path fill-rule="evenodd" clip-rule="evenodd" d="M3 3.75C2.27065 3.75 1.57118 4.03973 1.05546 4.55546C0.539731 5.07118 0.25 5.77065 0.25 6.5V15.5C0.25 16.2293 0.539731 16.9288 1.05546 17.4445C1.57118 17.9603 2.27065 18.25 3 18.25H17C17.7293 18.25 18.4288 17.9603 18.9445 17.4445C19.4603 16.9288 19.75 16.2293 19.75 15.5V6.5C19.75 5.77065 19.4603 5.07118 18.9445 4.55546C18.4288 4.03973 17.7293 3.75 17 3.75H3ZM14.5 9.75C14.1685 9.75 13.8505 9.8817 13.6161 10.1161C13.3817 10.3505 13.25 10.6685 13.25 11C13.25 11.3315 13.3817 11.6495 13.6161 11.8839C13.8505 12.1183 14.1685 12.25 14.5 12.25C14.8315 12.25 15.1495 12.1183 15.3839 11.8839C15.6183 11.6495 15.75 11.3315 15.75 11C15.75 10.6685 15.6183 10.3505 15.3839 10.1161C15.1495 9.8817 14.8315 9.75 14.5 9.75Z" fill="#ED008E"/>
<path d="M14.485 0.569397C14.7811 0.490495 15.0913 0.480679 15.3918 0.540707C15.6923 0.600734 15.9749 0.729 16.218 0.915604C16.461 1.10221 16.6579 1.34216 16.7935 1.61694C16.9291 1.89172 16.9998 2.19398 17 2.5004H7L14.485 0.569397Z" fill="#ED008E"/>
</svg>
