<svg width="28" height="28" viewBox="0 0 28 28" fill="none" xmlns="http://www.w3.org/2000/svg">
<g clip-path="url(#clip0_1937_2483)">
<path d="M14.6545 0.156954C14.6912 0.177256 14.728 0.197559 14.7658 0.218477C14.8521 0.26585 14.8521 0.26585 14.9401 0.31418C15.5867 0.831462 15.7741 1.58083 16.0407 2.33762C16.0658 2.4084 16.0909 2.47918 16.116 2.54996C16.1765 2.72066 16.2369 2.89141 16.297 3.06223C16.363 3.06267 16.4289 3.06311 16.4968 3.06357C17.1196 3.06781 17.7423 3.07261 18.365 3.07795C18.6852 3.08068 19.0053 3.08321 19.3254 3.0853C19.6346 3.08732 19.9438 3.08986 20.253 3.09275C20.3707 3.09376 20.4884 3.09458 20.6061 3.09522C20.7715 3.09615 20.9369 3.09774 21.1024 3.09948C21.1505 3.0996 21.1987 3.09971 21.2483 3.09984C21.8367 3.10767 22.4242 3.20521 22.8741 3.61167C23.1957 3.95714 23.4628 4.35253 23.4723 4.83801C23.4734 4.88727 23.4745 4.93652 23.4756 4.98727C23.477 5.06675 23.477 5.06675 23.4784 5.14783C23.4801 5.22942 23.4801 5.22942 23.4819 5.31265C23.4854 5.4865 23.4887 5.66035 23.4919 5.8342C23.4942 5.95201 23.4966 6.06983 23.499 6.18764C23.5049 6.47656 23.5105 6.76548 23.5158 7.05441C23.575 7.06467 23.6342 7.07493 23.6952 7.0855C23.7741 7.09961 23.853 7.11375 23.9319 7.1279C23.9902 7.13792 23.9902 7.13792 24.0497 7.14814C24.8163 7.28719 25.4434 7.76083 25.8913 8.39084C26.1789 8.86227 26.3667 9.34484 26.3658 9.89662C26.3658 9.93452 26.3658 9.97242 26.3658 10.0115C26.3657 10.1363 26.3653 10.2612 26.3649 10.3861C26.3648 10.4728 26.3647 10.5596 26.3647 10.6463C26.3644 10.8743 26.3639 11.1023 26.3633 11.3303C26.3627 11.5631 26.3625 11.7959 26.3622 12.0286C26.3616 12.4851 26.3607 12.9417 26.3595 13.3982C26.4198 13.4061 26.48 13.4141 26.542 13.4223C26.999 13.492 27.3942 13.7408 27.672 14.1091C27.9115 14.5178 28.0084 14.8433 28.0099 15.3169C28.0104 15.3933 28.0104 15.3933 28.0109 15.4711C28.012 15.6398 28.0127 15.8085 28.0132 15.9772C28.0134 16.0349 28.0136 16.0926 28.0139 16.1521C28.015 16.4576 28.0158 16.7632 28.0163 17.0688C28.0169 17.3837 28.0188 17.6985 28.021 18.0134C28.0224 18.2561 28.0229 18.4988 28.0231 18.7415C28.0233 18.8575 28.024 18.9735 28.025 19.0895C28.0263 19.2525 28.0263 19.4153 28.0259 19.5783C28.0266 19.6257 28.0273 19.6731 28.028 19.7219C28.0233 20.281 27.793 20.7702 27.3986 21.1638C27.1454 21.3595 26.9088 21.4837 26.596 21.5507C26.5517 21.5602 26.5074 21.5698 26.4618 21.5797C26.428 21.5868 26.3943 21.5939 26.3595 21.6013C26.36 21.649 26.3605 21.6968 26.361 21.746C26.3654 22.1989 26.3687 22.6517 26.3709 23.1046C26.372 23.3374 26.3736 23.5701 26.376 23.8029C26.3784 24.028 26.3797 24.2532 26.3803 24.4784C26.3807 24.5637 26.3815 24.6491 26.3827 24.7344C26.3959 25.7208 26.1374 26.4895 25.4561 27.2164C25.0689 27.5792 24.6216 27.793 24.1174 27.945C24.086 27.9547 24.0546 27.9644 24.0222 27.9744C23.8594 28.0078 23.7052 28.0068 23.5389 28.0071C23.4845 28.0073 23.4845 28.0073 23.4291 28.0075C23.3071 28.0078 23.1852 28.0078 23.0632 28.0078C22.9751 28.008 22.887 28.0082 22.7989 28.0084C22.5564 28.0089 22.3138 28.0091 22.0713 28.0093C21.8098 28.0095 21.5484 28.01 21.2869 28.0105C20.6552 28.0116 20.0236 28.0121 19.3919 28.0126C19.0944 28.0129 18.7969 28.0131 18.4994 28.0134C17.5103 28.0144 16.5212 28.0152 15.5322 28.0156C15.2755 28.0157 15.0188 28.0158 14.7621 28.0159C14.6983 28.0159 14.6345 28.0159 14.5687 28.0159C13.5355 28.0164 12.5024 28.0178 11.4692 28.0196C10.4083 28.0214 9.34739 28.0224 8.2865 28.0225C7.69091 28.0226 7.09532 28.0231 6.49973 28.0245C5.99241 28.0257 5.48509 28.0262 4.97777 28.0256C4.71906 28.0254 4.46036 28.0255 4.20165 28.0265C3.96444 28.0275 3.72726 28.0274 3.49006 28.0266C3.4046 28.0265 3.31914 28.0267 3.23368 28.0274C2.25579 28.0343 1.50052 27.7674 0.783527 27.0965C0.343814 26.6265 -0.00584536 25.972 -0.00716829 25.3173C-0.00741208 25.2613 -0.00765645 25.2052 -0.00790763 25.1475C-0.00789755 25.086 -0.00788631 25.0245 -0.00787592 24.9612C-0.00807699 24.8958 -0.00827959 24.8304 -0.00848675 24.7631C-0.00898545 24.5815 -0.0092378 24.4 -0.00938296 24.2184C-0.00959661 24.0226 -0.010119 23.8268 -0.0105963 23.631C-0.0116767 23.1581 -0.0122292 22.6851 -0.0127158 22.2122C-0.0129556 21.9894 -0.0132488 21.7665 -0.0135353 21.5437C-0.0144656 20.8026 -0.015257 20.0616 -0.0156531 19.3205C-0.0157576 19.1283 -0.0158633 18.936 -0.0159702 18.7437C-0.0159967 18.6959 -0.0160231 18.6481 -0.0160503 18.5989C-0.016504 17.8252 -0.0178884 17.0516 -0.0196652 16.2779C-0.0214755 15.4832 -0.0224597 14.6885 -0.0226343 13.8937C-0.0227525 13.4477 -0.0232291 13.0017 -0.0246286 12.5557C-0.0258182 12.1757 -0.0262541 11.7957 -0.0257235 11.4157C-0.0254756 11.2221 -0.0255742 11.0284 -0.0266397 10.8347C-0.0277877 10.6242 -0.0272197 10.4137 -0.0265012 10.2032C-0.0271011 10.1427 -0.0277023 10.0822 -0.0283203 10.0199C-0.0210523 9.13429 0.365199 8.43105 0.984547 7.82004C1.50001 7.36073 2.06225 7.17357 2.73455 7.05441C2.72129 7.01838 2.70804 6.98234 2.69439 6.94521C2.11674 5.35489 2.11674 5.35489 2.44359 4.56977C2.80016 3.87667 3.36174 3.5959 4.07439 3.34848C4.17564 3.31237 4.27689 3.27625 4.37814 3.24013C4.48539 3.20201 4.59275 3.16423 4.70015 3.12654C4.92574 3.04737 5.15098 2.96726 5.37617 2.88696C5.45267 2.8597 5.52916 2.83243 5.60566 2.80516C5.64359 2.79165 5.68152 2.77813 5.72059 2.7642C5.83594 2.72313 5.95131 2.68215 6.06669 2.64119C6.7386 2.4026 7.40802 2.15751 8.07683 1.91037C9.08728 1.5377 10.0993 1.1694 11.112 0.80295C11.1808 0.778035 11.2497 0.753121 11.3185 0.728207C11.8565 0.533529 11.8565 0.533529 12.0876 0.450403C12.3335 0.36194 12.5793 0.273371 12.8236 0.180599C13.4369 -0.0493688 14.0411 -0.137972 14.6545 0.156954ZM13.069 1.88388C13.0146 1.90395 12.9601 1.92402 12.9041 1.94469C12.7235 2.01139 12.5433 2.07881 12.363 2.14621C12.2351 2.19356 12.1072 2.24085 11.9793 2.28808C11.7795 2.36191 11.5796 2.43578 11.3799 2.50985C10.7449 2.74528 10.1084 2.97648 9.47162 3.20715C8.36557 3.60804 7.26077 4.01229 6.15675 4.41872C6.05448 4.45636 5.9522 4.49397 5.84991 4.53158C5.6593 4.60169 5.46872 4.6719 5.27816 4.74216C5.22235 4.76268 5.16654 4.78319 5.10905 4.80433C4.8529 4.89892 4.59724 4.99474 4.34266 5.09346C4.29885 5.11038 4.25505 5.1273 4.20991 5.14474C4.09242 5.19185 4.09242 5.19185 3.99236 5.30441C4.00466 5.67863 4.16011 6.01844 4.29314 6.36399C4.31591 6.4244 4.33868 6.48481 4.36214 6.54706C4.44604 6.81957 4.44604 6.81957 4.59392 7.05441C4.69288 7.05969 4.79206 7.06108 4.89116 7.06099C4.9879 7.0611 4.9879 7.0611 5.0866 7.06122C5.158 7.06102 5.22939 7.06083 5.30295 7.06062C5.37839 7.06061 5.45383 7.06062 5.52926 7.06065C5.73467 7.06066 5.94008 7.06034 6.14549 7.05996C6.35992 7.05962 6.57436 7.05959 6.7888 7.05952C7.19514 7.05935 7.60148 7.0589 8.00782 7.05835C8.47031 7.05774 8.9328 7.05744 9.39529 7.05717C10.3469 7.05659 11.2985 7.05563 12.2502 7.05441C12.2509 6.94646 12.2509 6.94646 12.2517 6.83632C12.2539 6.56754 12.2575 6.29879 12.2615 6.03003C12.2631 5.91403 12.2642 5.79803 12.265 5.68203C12.2662 5.51462 12.2687 5.34727 12.2715 5.17987C12.2716 5.12858 12.2717 5.07729 12.2717 5.02445C12.2833 4.49621 12.4866 4.04667 12.8517 3.66379C13.2381 3.35097 13.6109 3.2229 14.1027 3.16477C14.1404 3.16004 14.178 3.15532 14.2168 3.15045C14.3086 3.13898 14.4005 3.1279 14.4924 3.11691C14.4221 2.91056 14.3513 2.7044 14.2804 2.49826C14.2505 2.41034 14.2505 2.41034 14.22 2.32063C14.2006 2.26441 14.1812 2.20819 14.1612 2.15027C14.1435 2.09843 14.1257 2.0466 14.1074 1.99319C14.0562 1.84848 14.0562 1.84848 13.9455 1.69504C13.6328 1.64456 13.3564 1.77528 13.069 1.88388ZM13.9455 4.9216C13.7206 5.59628 13.8908 6.34324 13.8908 7.05441C16.5076 7.05441 19.1244 7.05441 21.8205 7.05441C21.929 5.92213 21.929 5.92213 21.7111 4.86691C21.5687 4.7957 21.4648 4.80518 21.3053 4.80491C21.2108 4.80456 21.2108 4.80456 21.1145 4.80421C21.0451 4.80423 20.9757 4.80426 20.9042 4.80428C20.8306 4.80412 20.757 4.80393 20.6835 4.80373C20.4834 4.80324 20.2833 4.80311 20.0832 4.80308C19.9163 4.80303 19.7494 4.80283 19.5825 4.80263C19.1888 4.80219 18.7951 4.80205 18.4015 4.80209C17.995 4.80213 17.5886 4.80155 17.1821 4.80069C16.8335 4.79997 16.4848 4.79968 16.1362 4.79971C15.9278 4.79973 15.7194 4.79957 15.5111 4.79899C15.3151 4.79846 15.1192 4.79846 14.9233 4.79886C14.8169 4.79894 14.7106 4.79848 14.6042 4.79801C14.5095 4.79836 14.5095 4.79836 14.413 4.79871C14.358 4.79868 14.3031 4.79865 14.2464 4.79862C14.0959 4.80276 14.0959 4.80276 13.9455 4.9216ZM1.91423 9.2966C1.61657 9.73577 1.63272 10.2121 1.63348 10.7243C1.63336 10.7851 1.63324 10.8458 1.63311 10.9084C1.63276 11.1116 1.63281 11.3148 1.63285 11.518C1.63269 11.6638 1.6325 11.8097 1.6323 11.9555C1.63184 12.3103 1.63169 12.6651 1.63166 13.0199C1.63163 13.3083 1.63152 13.5968 1.63135 13.8853C1.63087 14.7037 1.63062 15.5221 1.63066 16.3405C1.63066 16.3845 1.63066 16.4286 1.63066 16.474C1.63067 16.5182 1.63067 16.5623 1.63067 16.6078C1.63069 17.3232 1.63017 18.0386 1.6294 18.754C1.62861 19.4891 1.62823 20.2242 1.62828 20.9593C1.6283 21.3718 1.62815 21.7843 1.62756 22.1968C1.62706 22.548 1.62694 22.8991 1.62732 23.2503C1.62749 23.4293 1.62744 23.6084 1.62702 23.7874C1.6266 23.9818 1.62685 24.1762 1.62728 24.3706C1.62699 24.4268 1.62671 24.483 1.62642 24.5408C1.62907 25.0933 1.70245 25.5519 2.0783 25.9763C2.38134 26.2169 2.63885 26.3111 3.02648 26.3119C3.06197 26.3121 3.09745 26.3122 3.134 26.3123C3.25372 26.3128 3.37343 26.3128 3.49315 26.3128C3.57952 26.3131 3.6659 26.3133 3.75227 26.3136C3.99027 26.3142 4.22828 26.3145 4.46629 26.3148C4.72274 26.3151 4.97918 26.3157 5.23563 26.3163C5.85532 26.3177 6.47501 26.3185 7.09471 26.3192C7.26971 26.3194 7.44471 26.3196 7.61971 26.3198C8.7062 26.3212 9.79269 26.3224 10.8792 26.3231C11.1309 26.3232 11.3826 26.3234 11.6344 26.3236C11.7282 26.3236 11.7282 26.3236 11.824 26.3237C12.8375 26.3244 13.851 26.3262 14.8645 26.3285C15.9048 26.3308 16.9451 26.3321 17.9854 26.3324C18.5696 26.3326 19.1538 26.3332 19.7379 26.335C20.2355 26.3365 20.733 26.3371 21.2306 26.3365C21.4844 26.3362 21.7382 26.3364 21.992 26.3377C22.2245 26.339 22.4571 26.3389 22.6896 26.3379C22.7735 26.3377 22.8575 26.3381 22.9414 26.3389C23.4165 26.3432 23.8312 26.3239 24.2267 26.031C24.6135 25.6219 24.7263 25.1999 24.7251 24.6434C24.7251 24.5416 24.7251 24.5416 24.7251 24.4378C24.7248 24.3646 24.7246 24.2914 24.7243 24.2182C24.7242 24.1426 24.7241 24.0671 24.724 23.9915C24.7238 23.7936 24.7233 23.5956 24.7227 23.3976C24.7221 23.1953 24.7219 22.9929 24.7216 22.7905C24.721 22.3941 24.7201 21.9977 24.7189 21.6013C24.6748 21.6011 24.6308 21.6009 24.5853 21.6007C24.1663 21.5986 23.7473 21.5955 23.3282 21.5912C23.1129 21.5891 22.8976 21.5873 22.6822 21.5865C22.4737 21.5856 22.2652 21.5837 22.0567 21.5811C21.9779 21.5803 21.899 21.5799 21.8202 21.5799C20.718 21.5786 19.7498 21.2542 18.922 20.5075C18.884 20.4745 18.8459 20.4416 18.8067 20.4076C18.1573 19.8085 17.7209 18.8832 17.6521 18.0009C17.6045 16.7481 17.8375 15.6418 18.6854 14.6771C19.6726 13.6651 20.8739 13.3993 22.2462 13.3809C22.3172 13.3797 22.3881 13.3786 22.4611 13.3774C22.6481 13.3744 22.835 13.3717 23.0219 13.3691C23.2133 13.3663 23.4046 13.3633 23.596 13.3602C23.9703 13.3544 24.3446 13.3488 24.7189 13.3435C24.7215 12.9313 24.7234 12.5191 24.7246 12.1069C24.7252 11.9155 24.7259 11.724 24.7272 11.5326C24.7286 11.312 24.7291 11.0914 24.7296 10.8708C24.7302 10.8028 24.7307 10.7347 24.7313 10.6646C24.7314 10.1012 24.6965 9.58835 24.3107 9.15112C23.8419 8.70218 23.2287 8.72592 22.6184 8.72889C22.5335 8.7287 22.4486 8.72844 22.3637 8.72812C22.1315 8.72744 21.8994 8.72777 21.6672 8.72828C21.4164 8.72865 21.1656 8.72808 20.9148 8.72763C20.4239 8.7269 19.933 8.72706 19.4421 8.72753C19.0431 8.7279 18.6441 8.72795 18.245 8.72777C18.1882 8.72775 18.1314 8.72772 18.0728 8.7277C17.9573 8.72764 17.8419 8.72759 17.7264 8.72754C16.6441 8.72707 15.5619 8.72761 14.4797 8.72849C13.5515 8.72922 12.6233 8.72909 11.6951 8.72834C10.6167 8.72746 9.53823 8.72711 8.45981 8.72762C8.34477 8.72767 8.22973 8.72772 8.11469 8.72777C8.05809 8.7278 8.0015 8.72782 7.94318 8.72785C7.54472 8.72799 7.14627 8.72775 6.74781 8.72737C6.26208 8.72691 5.77636 8.72703 5.29064 8.7279C5.04292 8.72833 4.7952 8.72851 4.54747 8.72796C4.32051 8.72747 4.09357 8.72774 3.86661 8.72861C3.7847 8.7288 3.70278 8.72871 3.62087 8.72831C2.9514 8.7253 2.37466 8.76387 1.91423 9.2966ZM19.8502 15.877C19.371 16.5262 19.2274 17.1971 19.3049 17.9919C19.4493 18.6152 19.8152 19.1594 20.3439 19.5232C20.7955 19.782 21.1902 19.9224 21.7104 19.9219C21.7829 19.9224 21.7829 19.9224 21.8568 19.923C22.0158 19.924 22.1748 19.9242 22.3338 19.9243C22.4445 19.9247 22.5552 19.9251 22.666 19.9255C22.8976 19.9261 23.1292 19.9263 23.3609 19.9262C23.6581 19.9262 23.9552 19.9277 24.2524 19.9296C24.4808 19.9308 24.7093 19.931 24.9377 19.931C25.0473 19.9311 25.1569 19.9316 25.2665 19.9324C25.4195 19.9335 25.5723 19.9332 25.7252 19.9325C25.7707 19.9332 25.8161 19.9338 25.8629 19.9344C26.1012 19.9319 26.1012 19.9319 26.3056 19.8214C26.3803 19.6355 26.382 19.4614 26.3799 19.2643C26.3802 19.2007 26.3802 19.2007 26.3805 19.1359C26.381 18.9961 26.3802 18.8563 26.3794 18.7165C26.3794 18.6193 26.3794 18.522 26.3795 18.4248C26.3795 18.221 26.3789 18.0173 26.3779 17.8135C26.3767 17.5524 26.3767 17.2913 26.377 17.0301C26.3772 16.8293 26.3769 16.6286 26.3763 16.4278C26.3761 16.3315 26.376 16.2352 26.3761 16.1389C26.3761 16.0043 26.3755 15.8698 26.3746 15.7352C26.3747 15.6954 26.3748 15.6556 26.375 15.6147C26.3729 15.4155 26.3667 15.2595 26.2502 15.0935C26.0807 15.0087 25.9014 15.0307 25.7154 15.0308C25.6714 15.0307 25.6275 15.0305 25.5822 15.0303C25.4363 15.0298 25.2904 15.0297 25.1445 15.0296C25.0429 15.0294 24.9414 15.0292 24.8399 15.0291C24.6266 15.0287 24.4132 15.0286 24.1999 15.0287C23.9277 15.0287 23.6554 15.0279 23.3831 15.027C23.1731 15.0264 22.9631 15.0263 22.7531 15.0263C22.6528 15.0262 22.5526 15.026 22.4523 15.0256C21.4721 15.0218 20.5586 15.1091 19.8502 15.877Z" fill="#3A3C98"/>
<path d="M22.2206 16.7755C22.4132 16.9367 22.5138 17.0779 22.5612 17.3269C22.5702 17.6402 22.5592 17.8402 22.3505 18.0846C22.1541 18.2834 21.9944 18.3291 21.7182 18.3341C21.3907 18.3293 21.2554 18.2351 21.0107 18.0231C20.8454 17.8132 20.8528 17.5895 20.865 17.3313C20.9038 17.0938 20.9789 16.9433 21.1645 16.7892C21.5178 16.573 21.8555 16.5826 22.2206 16.7755Z" fill="#3A3C98"/>
</g>
<defs>
<clipPath id="clip0_1937_2483">
<rect width="28" height="28" fill="white"/>
</clipPath>
</defs>
</svg>
